<svg id="圖層_1" data-name="圖層 1" xmlns="http://www.w3.org/2000/svg" viewBox="0 0 227.65 57.65"><defs><style>.cls-1{fill:#fff;}.cls-2{fill:#00a0e9;}</style></defs><title>工作區域 126</title><path class="cls-1" d="M46.73,2.72c-4.29,0-33-.22-37.27-.14C4.47,2.67,2.9,5.42,3,9.38c.1,5.77-.32,12.51-.32,18.29S2,39.3,3.51,44.81c.37,1.38.7,2.78,1.16,4.12C5.36,51,7.1,50.87,9.44,51.39c2.09.46,4.2.81,6.3,1.24,15.48,3.13,33.79,1.54,49.72,1.82,17.84.31,36.82-.6,54.67-.5,35.69.21-17.46,1.67,18.23,1,16.52-.29,31.69-.68,48.17-.77,9.92-.05,20.14-.45,34.5-1.74,4.58-6.06,3.76-15.09,3.88-22,.17-9.95,2.12-24.09-10.31-26.07-3-.48-6.59-.2-9.7-.47C199.54,3.5,194,2.78,188.58,2.68c-13-.25-26.08,0-39.1,0H27.08c-4.51,0,11.67-.13,7.17-.13"/><path class="cls-2" d="M46.73.23C36.83.23,26.93.11,17,.08c-2,0-4.08,0-6.13,0-2.66,0-5.37.2-7.53,2C.42,4.41.51,8.08.5,11.53.5,16.34.24,21.14.19,26s-.44,9.89.09,14.77a43.77,43.77,0,0,0,1.57,7.51c.6,2.09,1.39,3.87,3.5,4.74a32.15,32.15,0,0,0,6.09,1.36c2.4.46,4.79,1,7.21,1.33A122.14,122.14,0,0,0,33,57c9.54.36,19.08-.06,28.62-.05,10.09,0,20.16.08,30.25-.11,13.56-.26,27.18-.8,40.73-.08.59,0-.61-.13-.27,0l.08,0A2.36,2.36,0,0,1,130.71,55V53.68c0-.13,1.1-2,1.66-1.68a.31.31,0,0,0-.13,0c-.05,0-.11,0-.16,0-.46.14.14-.33.35-.05a6.34,6.34,0,0,0-1.3.14c-1.08.09-2.17.16-3.25.24-.78,0-1.57.09-2.35.18-1.81.21-3.44,1.84-2.31,3.78a2.76,2.76,0,0,0,2.51,1.27c1.59.08,3.2,0,4.78,0q6.63-.09,13.25-.23c13.27-.25,26.55-.55,39.82-.65,10.91-.08,21.78-.47,32.66-1.35,1.6-.13,3.2-.23,4.79-.41,1.84-.21,2.75-1.92,3.53-3.43a24.09,24.09,0,0,0,2.3-7.56c.72-5,.43-10,.58-15.07.22-7.52,1.22-17-4.41-22.94-3.47-3.67-8.47-4.25-13.26-4.32C203.16,1.53,196.62.48,190,.23c-13.64-.52-27.32,0-41,0-5.68,0-11.36-.1-17,0h-.41c-3.21,0-3.21,5,0,5h2.22c3.21,0,3.21-5,0-5H28.92a23.23,23.23,0,0,1-2.64,0l.66,4.89c-.53.15-.84.07-.24.08.36,0,.71,0,1.07,0l3.07,0A22,22,0,0,0,35.71,5,2.49,2.49,0,0,0,37.5,2.27,2.54,2.54,0,0,0,35.05.11a7.12,7.12,0,0,0-.8,0c-3.2,0-3.21,5,0,5a7.12,7.12,0,0,1,.8,0L34.39.2c.54-.14.83-.07.23-.08-.35,0-.71,0-1.07,0l-3.07,0c-1.5,0-3.4-.28-4.87.14A2.5,2.5,0,0,0,23.83,3,2.54,2.54,0,0,0,26.28,5.2a55.68,55.68,0,0,0,6.46,0H133.83c3.21,0,3.21-5,0-5h-2.22c-3.21,0-3.21,5,0,5,14.87,0,29.74-.13,44.6-.14,6.53,0,13.07-.05,19.58.52,3.11.27,6.21.64,9.32.88,2.87.22,5.79,0,8.65.34a9.74,9.74,0,0,1,4.92,1.87c-.26-.2.07.07.1.09l.55.52A9.32,9.32,0,0,1,220,10c-.28-.35.2.3.21.3s.18.28.26.42a11.44,11.44,0,0,1,.71,1.34c-.14-.3.18.47.23.61.15.41.27.83.39,1.26a22.15,22.15,0,0,1,.54,2.67c-.06-.41.06.51,0,.46l.06.56c0,.48.08,1,.1,1.44,0,1,.08,1.94.08,2.91,0,4.5-.21,9-.22,13.51,0,5.4-.2,11.17-3.52,15.69L221,50c-7.48.67-15,1.21-22.5,1.49-7.17.27-14.34.25-21.51.34-15.23.17-30.46.58-45.7.8-1.48,0-3,0-4.44,0H125.8c-.87,0,.55.12.83.31s.6.59.89.89h0c.09.64.17,1.28.25,1.92h0c-.21.37-.42.74-.64,1.1a2.21,2.21,0,0,1-1.56.69l.37,0,1.1-.09,3-.21c1-.08,2.1-.15,3.13-.32,2.26-.38,3.48-3.37,1.15-4.73-1-.59-2.47-.49-3.61-.54-2.6-.1-5.2-.12-7.8-.14-11.66-.1-23.32.2-35,.4-11.9.2-23.8-.05-35.7.13-11.23.16-22.65.53-33.76-1.39-2.93-.51-5.84-1.12-8.76-1.71-.55-.11-1.1-.19-1.65-.31a7.24,7.24,0,0,1-.87-.22s-.18-.19-.14-.11a12.69,12.69,0,0,1-.73-2.51A35.64,35.64,0,0,1,5,37.24c-.08-3,.09-6.08.11-9.11,0-5.68.35-11.36.33-17a25.77,25.77,0,0,1,0-3.17,4.58,4.58,0,0,1,.59-1.65c.28-.42.12-.15,0-.07a3.64,3.64,0,0,1,.53-.51c-.27.2.44-.23.58-.29a9.56,9.56,0,0,1,2.27-.34c11.64-.28,23.32.09,35,.14h2.23c3.21,0,3.21-5,0-5Z"/><path class="cls-2" d="M45.86,36.05H40.35a39.36,39.36,0,0,1,5.28,3.44L43.9,41.28a36.55,36.55,0,0,0-5.63-3.81l1.42-1.42H34.24l1.85,1.31a35.72,35.72,0,0,1-6.77,3.89,13.91,13.91,0,0,0-1.67-1.79,29.64,29.64,0,0,0,6-3.41H28.33V34.38c-2.67,1.1-5.54,2.27-7.79,3.15l-1-2.64c.94-.29,2.07-.66,3.29-1.08V24.38h-3V21.87h3V15.54h2.5v6.33h3.07v2.51H25.37v8.55l2.79-1.05.37,1.93h2.21V21.45h4.15c.12-.54.2-1.08.31-1.68H29.35V17.64h6.2c.11-.82.22-1.65.28-2.36l2.81.12c-.14.71-.31,1.5-.48,2.24h7v2.13H37.68c-.15.6-.29,1.14-.46,1.68h6.25V33.81h2.39ZM33.05,23.24v1.5h8v-1.5Zm8,3h-8v1.42h8Zm-8,4.46h8v-1.5h-8Zm0,3.13h8V32.19h-8Z"/><path class="cls-2" d="M75.92,31.88s0,.65-.06,1c-.28,4.72-.6,6.68-1.31,7.47a2.73,2.73,0,0,1-1.93.8,23.57,23.57,0,0,1-3.46,0,5.63,5.63,0,0,0-.74-2.31,26.08,26.08,0,0,0,3,.15c.48,0,.74,0,1-.26s.62-1.7.82-4.77H58.5a22.78,22.78,0,0,1-5.26,3.18,14.45,14.45,0,0,0-1.5-2A17.91,17.91,0,0,0,59,30.28H56V22.1a42.52,42.52,0,0,0,6.54-1.85L64.1,21.9a40.43,40.43,0,0,1-5.8,1.57V25h5.14v1.82H58.3v1.59H70.89V26.82H65.8V25h5.09V23.49H65.32V21.62h8v8.66H62a19.59,19.59,0,0,1-1.25,1.6Zm.76-14.52v5.31h-2.5v-3H55v3H52.62V17.36H63.1a15.71,15.71,0,0,0-.76-1.59L65,15a20.36,20.36,0,0,1,1.19,2.33ZM55.26,39.58a15,15,0,0,0,2.45-4.92l2.1.85a19.48,19.48,0,0,1-2.45,5.09Zm7.45-4.64a17.17,17.17,0,0,1,1,5l-2.13.28a17.73,17.73,0,0,0-.82-5Zm3.4-.19A14,14,0,0,1,67.85,39l-2,.57a15.86,15.86,0,0,0-1.62-4.26Zm3.78,3.46a13,13,0,0,0-2.16-3l1.74-.77a11.93,11.93,0,0,1,2.21,2.93Z"/><path class="cls-2" d="M107.91,20.17V33.75h-2.76V32.22H97.76v9H95v-9H87.65v1.67H85V20.17H95V15.23h2.75v4.94ZM95,29.63V22.75H87.65v6.88Zm10.14,0V22.75H97.76v6.88Z"/><path class="cls-2" d="M131.49,35.34c3.35,1.2,7.55,2.79,9.88,3.84l-1.25,2.1c-2.47-1.22-7.47-3.27-11.08-4.6l.88-1.34h-1.1c-1.23,2.36-4.35,4.78-12.16,6a13.28,13.28,0,0,0-1.51-2.16c5.94-.9,8.92-2.38,10.4-3.89H115.38V33.15h11.39a5.39,5.39,0,0,0,.09-.93V30.43h2.61v1.84a4.44,4.44,0,0,1-.06.88h5.43a19.85,19.85,0,0,0-2.07-1.64l.9-.88h-1a6.51,6.51,0,0,0-.71-2c1.14.05,2.25.05,2.56,0s.42-.09.42-.4V26h-5.76a10.77,10.77,0,0,1,2.5,2.14L130,29.52A12.38,12.38,0,0,0,127,26.88l1.13-.89H125V24.2h.88a5.86,5.86,0,0,0-1-1.47A28.75,28.75,0,0,0,132.51,21,20.91,20.91,0,0,0,130,18.55c-1.08.43-2.24.82-3.49,1.19a6.3,6.3,0,0,0-1.37-1.5,19.38,19.38,0,0,0,7.53-3.16l2.22.52c-.43.34-.83.68-1.31,1h4.63l.43-.09,1.39.74c-2.39,4.21-7.59,6.05-13.24,6.93h8.15v-2h2.5v2h3.41V26h-3.41v2.36c0,1.14-.22,1.65-1,2a6,6,0,0,1-1.93.29,17.94,17.94,0,0,1,2.36,1.9l-.63.65h5.06v2.19ZM119.7,26a7.68,7.68,0,0,1-2.33,5.65,14.1,14.1,0,0,0-2.05-1.19,5.74,5.74,0,0,0,2-4.55v-.09h-1.85V23.72h6.17v-1.9h-4.92V15.91H119v3.83h2.7V15.28H124v16h-2.38V25.79h-2Zm10.76-4.75c-1.56.17-3,.28-4.4.43l-.23-1.48c1.31-.06,2.82-.17,4.61-.28Zm1.51-3a17.21,17.21,0,0,1,2.19,2.05,11.1,11.1,0,0,0,2.67-2.05Z"/><path class="cls-2" d="M164.81,19.46a3.35,3.35,0,0,1-.05.68c1.53,1.56,4.57,2.53,8.32,2.76a7.85,7.85,0,0,0-1.42,2.16,13.89,13.89,0,0,1-7.61-3.13c-1,1.31-3.27,2.53-8.16,3.21a7.3,7.3,0,0,0-1.33-2h-7.22V21.11h8.24V23c6.16-.79,6.82-2.38,6.82-3.61V19H160A13.69,13.69,0,0,1,158,21.65a12.34,12.34,0,0,0-2-1.34,11.74,11.74,0,0,0,3.26-5.23l2.36.52c-.17.48-.34.93-.54,1.42h8.87l.37-.12,1.81.6a25.87,25.87,0,0,1-2.47,4.2L167.57,21a22.36,22.36,0,0,0,1.19-2h-3.95Zm-.22,17.22a74.4,74.4,0,0,1,8,3.09l-2.39,1.45A57.22,57.22,0,0,0,162.57,38l1.65-1.33h-8.5l2.36,1.08a39.15,39.15,0,0,1-8.7,3.55,20.4,20.4,0,0,0-2-2,30.79,30.79,0,0,0,8.19-2.64H151V25.26h18.53V36.68ZM154.9,18.75h-7v-2h7Zm-1.31,9.8h13.33V26.93H153.59Zm0,3.18h13.33V30.14H153.59Zm0,3.27h13.33V33.35H153.59Z"/><path class="cls-2" d="M183.31,29.15c-.57,3.18-1.76,7.16-3.38,9.2a17,17,0,0,0-1.25-3.06,19.11,19.11,0,0,0,2.75-6.82Zm3.8-.63c.6.83,2.65,4.55,3.07,5.43l-1.84,2a60.46,60.46,0,0,0-2.39-5.8V41.28h-2.47V27.1h-4.41V24.63h4.41v-9.4H186v9.4h4.43V27.1H186v2.28Zm-6.5-4.66a29.94,29.94,0,0,0-1.42-6.39l1.87-.48a26.26,26.26,0,0,1,1.56,6.36Zm10-6.45c-.74,2.16-1.59,4.8-2.33,6.42l-1.68-.51a48.24,48.24,0,0,0,1.71-6.42Zm11,16v7.84h-2.47V33.89l-8.41,1.54L190.3,33l8.83-1.59V15.23h2.47V30.94l3.16-.54.37,2.41Zm-6.1-4.12a22.14,22.14,0,0,0-4.66-3.41L192.09,24a24.91,24.91,0,0,1,4.74,3.22Zm1.13-6.85a20.37,20.37,0,0,0-4.43-3.66L193.53,17A22.25,22.25,0,0,1,198,20.45Z"/></svg>