<svg id="圖層_1" data-name="圖層 1" xmlns="http://www.w3.org/2000/svg" xmlns:xlink="http://www.w3.org/1999/xlink" viewBox="0 0 253.92 64.29"><defs><style>.cls-1{fill:none;}.cls-2{clip-path:url(#clip-path);}.cls-3,.cls-4{opacity:0.39;}.cls-4,.cls-5{fill:#fff;}.cls-6{fill:#00a0e9;}</style><clipPath id="clip-path"><rect class="cls-1" x="616.43" y="-852.71" width="582.97" height="974.86"/></clipPath></defs><title>工作區域 92</title><g class="cls-2"><g class="cls-3"><polygon class="cls-4" points="-18.03 263.81 16.17 323.06 925.25 -280.79 -52.24 204.56 -18.03 263.81"/><polygon class="cls-4" points="221.29 549.03 273.7 593.01 921.42 -285.35 168.88 505.05 221.29 549.03"/></g></g><path class="cls-5" d="M52.11,3c-4.79,0-36.8-.25-41.58-.16C5,2.93,3.2,6,3.29,10.42c.12,6.45-.35,14-.35,20.41S2.23,43.8,3.88,50c.42,1.54.79,3.09,1.29,4.6.78,2.31,2.72,2.15,5.32,2.73,2.34.53,4.69.91,7,1.39,17.27,3.49,37.7,1.72,55.47,2,19.91.35,41.08-.67,61-.56,39.83.23-19.48,1.86,20.34,1.15,18.43-.34,35.37-.77,53.75-.86,11.07-.06,22.47-.51,38.5-1.95,5.1-6.76,4.19-16.84,4.32-24.5.19-11.1,2.37-26.88-11.5-29.09-3.4-.54-7.35-.22-10.82-.52-6-.52-12.18-1.32-18.21-1.44-14.52-.27-29.11.05-43.63.05H30.18c-5,0,13-.14,8-.14"/><path class="cls-6" d="M52.11.21C39.52.21,26.93,0,14.34,0c-2.63,0-5.48-.22-8,.7A8.29,8.29,0,0,0,1.56,5a15.14,15.14,0,0,0-1,6.73C.57,17.79.2,23.88.16,30c0,6.31-.6,12.71.64,19,.3,1.53.72,3,1.14,4.54a9.93,9.93,0,0,0,1.84,4.12c1.72,1.94,4.54,2.09,6.91,2.58A153.23,153.23,0,0,0,28.88,63c12.22,1.06,24.5.5,36.74.43,6.23,0,12.46.12,18.7.1,6.55,0,13.11-.14,19.66-.27,11.81-.23,23.62-.46,35.44-.31,2.37,0,4.74.05,7.1.16a8.14,8.14,0,0,0,1.55.11c-.27,0-.88-.2-.4,0,.24.08,0,.06-.61-.26,1.38.8,1.37-5.55,0-4.74-.15.09.86-.18.56-.24a1.16,1.16,0,0,0-.31.07c-.61.18.91-.1.2,0l-1.32.13c-1.09.09-2.18.16-3.27.24-.86.06-1.73.11-2.59.19a6.8,6.8,0,0,0-1.2.16,2.81,2.81,0,0,0,0,5.38,13,13,0,0,0,3.35.13c2.71,0,5.43-.07,8.14-.11,12.51-.21,25-.5,37.51-.7,11.43-.19,22.86-.08,34.28-.55,5.53-.22,11.06-.56,16.58-1,1.55-.12,3.1-.24,4.65-.38l2.43-.21a3.69,3.69,0,0,0,3.11-1.72,21.75,21.75,0,0,0,3.18-7c1.36-5.12,1.3-10.5,1.29-15.76,0-4,.24-8,.24-12.08,0-7.53-1.07-16.57-8.36-20.63-4.95-2.77-10.65-2.09-16.1-2.41-6.54-.39-13-1.39-19.57-1.51-20.46-.39-40.95,0-61.41,0h-1.67c-3.57,0-3.58,5.56,0,5.56h2.48c3.58,0,3.58-5.56,0-5.56H38c-2.88,0-5.87.24-8.75,0l2.4,1.37h0l-2.4,4.18c3.24-.35,6.56.18,9.79-.12,2-.2,3.57-2.24,2.4-4.18C40.71.18,39.46.07,38.18.08c-3.57,0-3.58,5.56,0,5.55.3,0,.6,0,.89,0l-2.4-1.37h0L39.07.08c-3.23.31-6.55-.23-9.79.13-2,.21-3.6,2.22-2.39,4.18.95,1.54,2.53,1.38,4.05,1.38H149.29c3.58,0,3.58-5.56,0-5.56h-2.48c-3.57,0-3.58,5.56,0,5.56,16.73,0,33.46-.15,50.19-.16,7.18,0,14.38,0,21.54.59,3.49.31,7,.74,10.48,1,3.21.23,6.47-.07,9.65.39a14.28,14.28,0,0,1,3.26.87c-.4-.16.13.06.23.11l.6.31.68.41c.09.06.65.46.27.17a9.73,9.73,0,0,1,1.12,1l.33.37c.05.05.55.69.19.21a13.31,13.31,0,0,1,1.43,2.48c.2.45-.22-.6.07.16.08.25.17.49.26.73.13.42.26.84.37,1.27.23.87.49,2.25.57,2.83s.18,1.87.23,2.73c.07,1.16.09,2.31.09,3.47,0,5-.23,10-.25,15,0,6-.25,12.36-3.93,17.36l2.4-1.38c-8.41.75-16.83,1.35-25.26,1.67-7.93.3-15.85.28-23.78.37-17,.2-34,.65-51.06.9-1.67,0-3.34.05-5,.05h-1.16c-.93,0,.66.17.94.35l1,1h0l.38,1.4h0l-.81,2a2.35,2.35,0,0,1-1.76.77,2.71,2.71,0,0,0,.4,0l1.2-.09L145,63.8c1.18-.09,2.38-.17,3.55-.37a3.3,3.3,0,0,0,1.27-.4,2.82,2.82,0,0,0-.33-5,11.33,11.33,0,0,0-3.81-.46c-3-.11-5.92-.13-8.88-.15-13.2-.12-26.39.24-39.59.46S71.1,57.8,58,58c-12.67.19-25.58.6-38.1-1.67-3.15-.57-6.28-1.25-9.42-1.85-.55-.11-1.1-.19-1.64-.31A5.88,5.88,0,0,1,8,53.94c.47.17-.08,0-.08,0-.35,0-.16-.26,0,.1-.42-.82.09.32-.19-.41A24,24,0,0,1,7,50.84a40.29,40.29,0,0,1-1.41-9.46c-.07-3.22.1-6.43.13-9.65.06-6.39.38-12.78.37-19.17,0-1.21-.08-2.42,0-3.62.08-.89-.12.48.06-.36,0-.22.1-.43.16-.64a4.39,4.39,0,0,1,.21-.61c-.23.53.16-.23.22-.33s.42-.5.07-.12a4.26,4.26,0,0,1,.53-.51c-.39.31.58-.32.75-.4-.37.16.09,0,.14,0,.3-.09.6-.17.9-.23a8.74,8.74,0,0,1,1.45-.11c5.9-.14,11.82,0,17.72,0Q39,5.7,49.65,5.76h2.46c3.57,0,3.58-5.56,0-5.56Z"/><path class="cls-6" d="M64.77,18.13V46H61.6V44.3H41.35V46h-3V18.13ZM61.6,41.55V21.14H41.35V41.55ZM57.67,25.48V37.11H45.19V25.48Zm-2.94,2.6H48v6.46h6.75Z"/><path class="cls-6" d="M78.41,31.5c-1.3-.89-3.93-2.41-5.83-3.39l1.61-2.19c1.81.89,4.5,2.28,5.83,3.14Zm-5.2,12.14a93.78,93.78,0,0,0,6-10l2.12,2c-1.62,3.26-3.74,7.07-5.61,10Zm6.69-20.7C78.6,22,76,20.5,74.1,19.46l1.64-2.09a63.1,63.1,0,0,1,5.9,3.2Zm13.18,6v4.69h6.53V45.83H96.82V44.65H86.33V46H83.64V33.62h6.65V28.93H81.48V26.11h8.81v-4.5c-2.22.35-4.5.61-6.59.76a10.68,10.68,0,0,0-.86-2.47c5.42-.57,11.57-1.58,15.06-2.88l2.31,2.28a42.89,42.89,0,0,1-7.13,1.84v5h8.4v2.82Zm3.74,7.36H86.33V42H96.82Z"/><path class="cls-6" d="M136.32,24.18s0,1.05,0,1.39c-.31,13.06-.6,17.44-1.61,18.8a3,3,0,0,1-2.38,1.36,24.17,24.17,0,0,1-3.86,0,7.21,7.21,0,0,0-.86-2.69c1.52.12,2.85.16,3.49.16a1.12,1.12,0,0,0,1.07-.51c.73-.89,1.05-5,1.3-15.78h-3.74c-.38,8.65-1.77,15.27-7.19,19.46a9.07,9.07,0,0,0-2.22-2.32c.22-.16.44-.31.67-.5-4.57.53-9.13,1-12.49,1.39L108,42.43c1.8-.12,4.12-.34,6.62-.57V39.49h-5.77V37.33h5.77V35.75H109V26.18h5.67V24.53h-6.53V22.31h6.53V20.63c-2,.19-4,.29-5.77.35a7.5,7.5,0,0,0-.7-2.13,94.16,94.16,0,0,0,13.69-1.61l1.46,2.15a49.81,49.81,0,0,1-6,1v1.93h6.31v1.87H127c.06-2.12.06-4.37.06-6.75h2.82c0,2.34,0,4.59-.06,6.75Zm-25,5.86h3.3v-1.9h-3.3Zm3.3,3.74V31.85h-3.3v1.93Zm2.69,7.83c2-.19,4-.38,6-.6,2.51-3.52,3.3-8.24,3.55-14.07h-3.36V24.53h-6.21v1.65h5.9v9.57h-5.9v1.58h6.09v2.16h-6.09ZM120.72,30v-1.9h-3.39V30Zm-3.39,1.81v1.93h3.39V31.85Z"/><path class="cls-6" d="M172.14,42.09V45H144.06V42.09h12.36v-7H147V32.23h9.41V25.92H145.48V23h13.31a36,36,0,0,0-5.1-4.41L156.1,17a35.64,35.64,0,0,1,5.93,5L160.47,23h10.08v2.88h-10.9v6.31h9.51v2.85h-9.51v7Z"/><path class="cls-6" d="M189,39.8l2.63,1.91A49.25,49.25,0,0,1,181.18,46a20.21,20.21,0,0,0-2-2.29,40.15,40.15,0,0,0,9.76-3.93h-5.67V23.64h8c.16-.79.35-1.65.47-2.47H180.32v-2.7H206.5v2.7H195.09c-.25.85-.54,1.71-.79,2.47h9.95V39.8Zm-2.73-11.47h14.77V25.92H186.28Zm0,4.6h14.77V30.49H186.28Zm0,4.59h14.77V35.08H186.28Zm11.16,2.38A80.07,80.07,0,0,1,207.51,44L205,46.11a69.24,69.24,0,0,0-9.51-4.21Z"/></svg>