<svg id="圖層_1" data-name="圖層 1" xmlns="http://www.w3.org/2000/svg" xmlns:xlink="http://www.w3.org/1999/xlink" viewBox="0 0 405.72 142.05"><defs><style>.cls-1{fill:none;}.cls-2{clip-path:url(#clip-path);}.cls-3,.cls-4{opacity:0.39;}.cls-4{fill:#fff;}.cls-5{fill:#00a0e9;}</style><clipPath id="clip-path"><rect class="cls-1" x="622.45" y="-670.28" width="582.97" height="974.86"/></clipPath></defs><title>工作區域 109</title><g class="cls-2"><g class="cls-3"><polygon class="cls-4" points="-139.35 96.37 -127.47 163.75 933.31 -92.77 -151.23 28.99 -139.35 96.37"/><polygon class="cls-4" points="-12.01 446.24 22.2 505.49 931.27 -98.36 -46.22 386.99 -12.01 446.24"/><polygon class="cls-4" points="227.32 731.45 279.73 775.43 927.45 -102.93 174.91 687.48 227.32 731.45"/></g></g><path class="cls-5" d="M167.63,34.37A37.39,37.39,0,0,0,184,44.62a32.23,32.23,0,0,0-5.3,6.65,39.44,39.44,0,0,1-8.49-4.6,73.85,73.85,0,0,1,7.92,14l-7.28,3.26c-1.56-4.81-5.8-12.24-9.69-17.61L166.85,44a42.22,42.22,0,0,1-8.13-9.62H142.88A43.89,43.89,0,0,1,132.49,45.9l6.29,2.61c-2.26,5.23-5.38,11.24-9.34,15.13l-7-4.1A38,38,0,0,0,131.07,47a61.62,61.62,0,0,1-8.2,4.95,55.89,55.89,0,0,0-5.94-6.44c6.36-2.47,12.16-6.29,16-11.17H119.19V26.66h16V19.87H123.51v-7.7h11.66V4.67h8.35v7.5h13.86V4.67h8.48v7.5h11.88v7.7H165.86v6.79h16.48v7.71ZM142.17,39.6h8V62.09c0,3.89-.63,6-3.32,7.28-2.48,1.27-6.08,1.34-10.75,1.34a32.17,32.17,0,0,0-2.4-7.84c3,.14,6.22.14,7.28.14s1.2-.21,1.2-1.06Zm1.35-12.94h13.86V19.87H143.52Zm15.2,20.23a70.4,70.4,0,0,1,4,15.06l-7.21,1.62a72,72,0,0,0-3.61-15.27Z"/><path class="cls-5" d="M253.33,44.34V50.7H189.05V44.34h16.2a25.37,25.37,0,0,0-1.63-3.68L206,40h-6.64V26H244V40h-7.08l2.69.56c-.85,1.35-1.7,2.62-2.47,3.75ZM216.84,15H191.46V9h25.38V4.67h8.49V9h26.09v6H225.33v2.82H247v5.8H196.27v-5.8h20.57ZM198,53.32h47.59V71h-8.7V68.88H206.24V71H198ZM206.24,59v4.24h30.61V59Zm1.06-24.12h28.21v-3.6H207.3ZM212,40a20.81,20.81,0,0,1,1.9,4.31h14.64c.64-1.41,1.27-3,1.77-4.31Z"/><path class="cls-5" d="M267.05,58.27a7.36,7.36,0,0,1,14.7,0c0,4.1-3.18,6.93-7.35,6.93S267.05,62.37,267.05,58.27Zm1.2-36.06L268,11.67h12.94l-.36,10.54-2.47,24.18H270.8Z"/><path class="cls-5" d="M25.57,107.68c-.45.4-.9.8-1.29,1.19-.5-.59-1.49-1.63-2.43-2.52a50.92,50.92,0,0,1,.6,8.76c0,6.74-.55,13.27-2.68,16.29a5,5,0,0,1-3,1.93,19.74,19.74,0,0,1-6.34.4,12.74,12.74,0,0,0-1.53-5.65,28.39,28.39,0,0,0,5.35.1,1.76,1.76,0,0,0,1.38-.89c1-1.38,1.44-6,1.49-11.68A40.39,40.39,0,0,1,10.27,123a26.81,26.81,0,0,0-3.17-5,30,30,0,0,0,9.55-10.79,29.07,29.07,0,0,0-1.19-4.76A55.81,55.81,0,0,1,10,107.64a22.94,22.94,0,0,0-3.22-5.25,40.75,40.75,0,0,0,6.09-5,27.15,27.15,0,0,0-4.61-5.11l3.87-3.16a31.43,31.43,0,0,1,4.25,4.35,33.86,33.86,0,0,0,2.93-4.16l4.11,2.88c-1.14,1.83-2.58,3.86-4.11,5.89a28.14,28.14,0,0,1,2.18,6.19,34.45,34.45,0,0,0,6.14-7.18l2.92,1V95.75H23.49V91.54h7.08V88.42h5.15v9.81l3.07-1.59c.44.45.94.94,1.38,1.44V88.42h5.45v3h7.67V95.6H45.62v2.73h-5.2c.84.94,1.68,2,2.28,2.72h8.66v3.42h-9.5V106h8.36v2.92H41.86v1.69h8.36v2.92H41.86v1.63H52v3.47H30.62v.94H25.57Zm26.49,14.56a23.75,23.75,0,0,1-8.12,6.49,93.3,93.3,0,0,0,10.15,1.38,19.08,19.08,0,0,0-3.32,4.51,68.42,68.42,0,0,1-13.91-2.92,80.17,80.17,0,0,1-13.77,2.87A17.48,17.48,0,0,0,20.61,130a79.12,79.12,0,0,0,9.46-1.29,28.05,28.05,0,0,1-4.9-3.47l2.08-.84H24.13v-4.16H47.85l.89-.2Zm-15.4-17.77h-6V106h6Zm0,4.45h-6v1.69h6Zm0,4.61h-6v1.63h6Zm-5.8-15.25,1.69.54c-.45.74-.94,1.49-1.49,2.23h5.6c-.65-.79-1.34-1.63-2-2.33l1-.44Zm.55,26.14A22.55,22.55,0,0,0,37,126.9a25.63,25.63,0,0,0,5.6-2.48Z"/><path class="cls-5" d="M73.11,101.45a52.9,52.9,0,0,1-4.31,6.23v26.89H63.1V114a46,46,0,0,1-4.45,4,44.13,44.13,0,0,0-2.83-6.09A44.56,44.56,0,0,0,68,99.22ZM72.26,90.7a52.1,52.1,0,0,1-13,12.43,36.16,36.16,0,0,0-2.92-5,35.38,35.38,0,0,0,10.3-9.71Zm30.11,31.05H95.58v7c0,2.72-.49,4.11-2.42,4.95s-4.31.84-7.68.84a20.25,20.25,0,0,0-1.83-5.25c2.08.1,4.41.1,5,.1s.89-.25.89-.79v-6.88H79.2a51.57,51.57,0,0,1,5.64,6.19l-4.41,3.12a41.38,41.38,0,0,0-5.69-6.89l3.66-2.42H71.47v-5H89.59v-2.83H72.66v-4.8h28.67v4.8H95.58v2.83h6.74ZM99.7,106.94H75.19V89.81H99.7Zm-6-13H80.88V96.4H93.75Zm0,6.34H80.88v2.57H93.75Z"/><path class="cls-5" d="M146.39,111.15c-.24,4.06-.54,7.43-.84,10.1h5v5.35h-5.89a12.88,12.88,0,0,1-1.73,4.75,6.46,6.46,0,0,1-4.86,3.07,50.53,50.53,0,0,1-7.87.05,15.21,15.21,0,0,0-1.63-5.2,62.38,62.38,0,0,0,6.63.3,2.36,2.36,0,0,0,2.23-1,5.2,5.2,0,0,0,1-2H109.85c.89-4.26,1.83-9.71,2.72-15.45h-5.44V105.7h6.24c.74-5.2,1.28-10.44,1.73-15.15h32.18s0,2.28,0,3c-.2,4.61-.35,8.62-.55,12.13h5.1v5.45Zm-6.88,10.1c.35-2.57.64-5.94.94-10.1H118.71c-.54,3.57-1.09,7-1.58,10.1h13.62a44.56,44.56,0,0,0-8.32-6.24l3.71-3.46c3.07,1.68,7,4.26,8.91,6.29l-3.56,3.41ZM120.7,95.9c-.4,3.17-.85,6.54-1.29,9.8h12.87a40.44,40.44,0,0,0-8.22-5.74l3.47-3.52a39,39,0,0,1,8.56,5.6l-3.41,3.66h8c.15-2.92.3-6.19.39-9.8Z"/><path class="cls-5" d="M164.42,120.31a50.92,50.92,0,0,1-4.65,10.75,44,44,0,0,0-4-2.63,38.28,38.28,0,0,0,3.91-9.36Zm6.29-2.52v16.48h-5.35V117.79h-9v-4.91h9v-3.41h-9.45v-5h13.36a55.52,55.52,0,0,0,1.59-6.64l5.3,1c-.7,2-1.34,3.91-1.93,5.6h4.35v5h-7.87v3.41h7.08v4.91Zm6.83-20H156.8V93h7.72c-.4-1-.84-2.13-1.24-3l5.5-1.49c.69,1.34,1.53,3,2.13,4.51h6.63Zm-16.83,6.69a26.3,26.3,0,0,0-1.39-5.35l4.61-1a32,32,0,0,1,1.53,5.2Zm14.36,23.22a53,53,0,0,0-3.57-7l3.67-2a53.28,53.28,0,0,1,3.76,6.68Zm22,1.09c.74,0,.89-.65,1-5.94a14,14,0,0,0,4.76,2.13c-.45,7-1.84,8.81-5.1,8.81h-2.88c-4.16,0-5.05-1.63-5.05-6.39V119H187.6c-.65,7.38-2.53,12.58-10.3,15.75a14.54,14.54,0,0,0-3.17-4.36c6.29-2.28,7.62-6,8.07-11.39h-2.53V90.35h20.11V119h-4.61v8.37c0,1.29.1,1.44.64,1.44ZM184.92,98.57h9.31V95.5h-9.31Zm0,7.63h9.31v-3.07h-9.31Zm0,7.67h9.31V110.8h-9.31Z"/><path class="cls-5" d="M223.1,120.21a85.89,85.89,0,0,1,6.69,10.7L225,133.38a40.29,40.29,0,0,0-1.88-3.61c-10.89,2.67-12.77,3.22-13.91,3.91a16.16,16.16,0,0,0-2.62-4.56,5.3,5.3,0,0,0,2.07-4.35V103.08a41.89,41.89,0,0,0-3.36-4.31A29,29,0,0,0,212.75,88l5.8,1.73c-.2.55-.45,1-.7,1.59H228.2v5h-7.52a29.67,29.67,0,0,1,3.51,3.51l-3.07,2.58h6.93V120H214v6.64l6.34-1.39c-.64-1-1.34-2-1.93-3Zm-7.92-24a48.45,48.45,0,0,1-4.6,6.09h8.51a42,42,0,0,0-3.56-3.72l2.87-2.37Zm7.38,10.49H214v2.58h8.52Zm0,8.87v-2.08H214v2.08Zm28.57-19.36h-8.27a28.33,28.33,0,0,1,3.07,3.12l-3.52,3h7.08v20.5c0,2.72-.44,4.21-2.37,5.1s-4.31.94-7.93.94a21.12,21.12,0,0,0-1.68-5.4c2.23.1,4.71.1,5.4,0s1-.2,1-.84v-15h-7.73v26.79h-5.54V104a36,36,0,0,0-4.31-4,28.52,28.52,0,0,0,6.49-12l6,1.48c-.2.6-.4,1.24-.6,1.84h12.93Zm-9.9,6.09a37.4,37.4,0,0,0-3.87-4.06l2.48-2h-3.71a44.65,44.65,0,0,1-3.57,6.09Z"/><path class="cls-5" d="M270.94,120.21c-.79-1.29-2.08-3-3.42-4.7v19.06h-5.64V116.75a38.64,38.64,0,0,1-5.1,4.45A31.64,31.64,0,0,0,254.5,115,34.39,34.39,0,0,0,266,101.94H255.54v-5.3h7.82a34.67,34.67,0,0,0-3.61-5.3l4.51-2.77a29,29,0,0,1,4.4,6.24l-2.77,1.83H269l1.09-.24,3.12,2.22a51.56,51.56,0,0,1-5.1,10.35c1.93,1.73,5.54,5.4,6.53,6.44Zm24.66,9.16c.79,0,.94-1.09,1.09-6.68a15.3,15.3,0,0,0,4.9,2.23c-.5,7.18-1.78,9.35-5.4,9.35h-3.41c-4.41,0-5.4-1.73-5.4-6.78v-15.3h-2.82c-.6,10.35-2.38,18.12-11.74,22.73a17.07,17.07,0,0,0-3.61-4.81c8-3.56,9.16-9.55,9.6-17.92h-4.6V91.44h24.41v20.75h-5.55v15.3c0,1.63.1,1.88.79,1.88Zm-15.9-22.43h13.08V96.69H279.7Z"/><path class="cls-5" d="M323.08,112.09h26.35v22.43h-5.7v-1.93H328.48v2h-5.4V116.25l-2.32,3.17a55.58,55.58,0,0,0-3.77-4.61v19.86H311.2V118.18a41,41,0,0,1-5,4.11,24.83,24.83,0,0,0-2.72-5.59,36,36,0,0,0,12.57-13.87H305.26v-5.3H312a67.2,67.2,0,0,0-3.66-6.93l4.6-2a59.12,59.12,0,0,1,4,7l-3.86,1.93H319l1-.24,3.27,2.13a50.45,50.45,0,0,1-5,10.1c1.34,1,3.47,2.92,4.85,4.16ZM349.57,90.4v5H322.79v-5Zm-2.32,7.08v12.38H325.51V97.48ZM328.48,116.8v3.26h4.9V116.8Zm0,11.09h4.9v-3.42h-4.9Zm13.32-26H330.71v3.57H341.8Zm1.93,14.91h-5.1v3.26h5.1Zm0,11.09v-3.42h-5.1v3.42Z"/><path class="cls-5" d="M373.05,101.2H353.94V96.54h8.56a47.27,47.27,0,0,0-3.21-6.23l4.55-2.13a44.8,44.8,0,0,1,3.71,6.58l-3.31,1.78h8.81Zm-1.43,30.7H361V134h-5V116.89h15.6Zm-.35-24H356.12v-4.45h15.15Zm-15.15,2.23h15.15v4.41H356.12ZM361,121.6v5.54h5.54V121.6Zm39.16-12.68v4.85H372.21v-4.85h5.89c.3-1.63.7-3.46,1-5.44h-4.45V98.72H380c.2-1.24.35-2.47.55-3.66h-7.08V90.21h25.4v4.85H386.32c-.2,1.19-.4,2.42-.64,3.66h10.25v10.2Zm-25.44,7.18h22.77v18.42h-5.74v-1.63H380.18v1.78h-5.49Zm5.49,5.05v6.69h11.54v-6.69Zm4.66-17.67c-.35,2-.75,3.81-1.09,5.44h6.73v-5.44Z"/></svg>