<svg id="圖層_1" data-name="圖層 1" xmlns="http://www.w3.org/2000/svg" viewBox="0 0 2162.27 2182.73"><defs><style>.cls-1{opacity:0.64;}.cls-2{fill:#fff;opacity:0.39;}.cls-3{fill:none;}</style></defs><title>工作區域 30</title><g class="cls-1"><polygon class="cls-2" points="1081.13 0 1011.85 0 1081.13 1102.96 1150.41 0 1081.13 0"/><polygon class="cls-2" points="1081.13 2171.19 1150.41 2171.19 1081.13 1068.23 1011.85 2171.19 1081.13 2171.19"/><polygon class="cls-2" points="709.84 65.47 644.74 89.17 1087.07 1101.91 774.94 41.77 709.84 65.47"/><polygon class="cls-2" points="1452.43 2105.72 1517.53 2082.03 1075.2 1069.28 1387.33 2129.42 1452.43 2105.72"/><polygon class="cls-2" points="383.33 253.98 330.25 298.51 1092.29 1098.9 436.4 209.45 383.33 253.98"/><polygon class="cls-2" points="1778.94 1917.21 1832.01 1872.68 1069.97 1072.3 1725.87 1961.74 1778.94 1917.21"/><polygon class="cls-2" points="140.98 542.8 106.34 602.8 1096.17 1094.28 175.62 482.8 140.98 542.8"/><polygon class="cls-2" points="2021.29 1628.39 2055.93 1568.4 1066.1 1076.92 1986.65 1688.39 2021.29 1628.39"/><polygon class="cls-2" points="12.03 897.09 0 965.31 1098.23 1088.61 24.06 828.86 12.03 897.09"/><polygon class="cls-2" points="2150.24 1274.11 2162.27 1205.88 1064.04 1082.58 2138.21 1342.34 2150.24 1274.11"/><polygon class="cls-2" points="12.03 1274.11 24.06 1342.34 1098.23 1082.58 0 1205.88 12.03 1274.11"/><polygon class="cls-2" points="2150.24 897.08 2138.21 828.86 1064.04 1088.61 2162.27 965.31 2150.24 897.08"/><polygon class="cls-2" points="140.98 1628.39 175.62 1688.39 1096.17 1076.92 106.34 1568.4 140.98 1628.39"/><polygon class="cls-2" points="2021.29 542.8 1986.65 482.8 1066.1 1094.28 2055.93 602.8 2021.29 542.8"/><polygon class="cls-2" points="383.33 1917.21 436.4 1961.74 1092.29 1072.3 330.25 1872.68 383.33 1917.21"/><polygon class="cls-2" points="1778.94 253.98 1725.87 209.45 1069.97 1098.9 1832.01 298.51 1778.94 253.98"/><polygon class="cls-2" points="709.84 2105.72 774.94 2129.42 1087.07 1069.28 644.74 2082.03 709.84 2105.72"/><polygon class="cls-2" points="1452.43 65.47 1387.33 41.77 1075.2 1101.91 1517.53 89.17 1452.43 65.47"/></g><rect class="cls-3" x="782.84" y="381.01" width="590.33" height="987.17"/></svg>