<svg id="圖層_1" data-name="圖層 1" xmlns="http://www.w3.org/2000/svg" xmlns:xlink="http://www.w3.org/1999/xlink" viewBox="0 0 587.34 982.17"><defs><style>.cls-1{fill:none;}.cls-2{fill:url(#未命名漸層_10);}.cls-3{clip-path:url(#clip-path);}.cls-4,.cls-5{opacity:0.39;}.cls-5{fill:#fff;}.cls-6{clip-path:url(#clip-path-2);}</style><radialGradient id="未命名漸層_10" cx="259.16" cy="277.38" r="568.58" gradientUnits="userSpaceOnUse"><stop offset="0" stop-color="#fff"/><stop offset="0.19" stop-color="#dceff9"/><stop offset="0.42" stop-color="#bae0f3"/><stop offset="0.64" stop-color="#a2d5ef"/><stop offset="0.84" stop-color="#93ceec"/><stop offset="1" stop-color="#8ecceb"/></radialGradient><clipPath id="clip-path"><rect class="cls-1" x="8.21" y="1088.96" width="585.06" height="978.36"/></clipPath><clipPath id="clip-path-2"><rect class="cls-1" x="669.14" y="1088.96" width="585.06" height="978.36"/></clipPath></defs><title>工作區域 174</title><rect class="cls-2" width="587.34" height="982.17"/><g class="cls-3"><g class="cls-4"><polygon class="cls-5" points="303.23 595.63 234.57 595.63 303.23 1688.74 371.89 595.63 303.23 595.63"/><polygon class="cls-5" points="-64.75 660.51 -129.27 683.99 309.12 1687.7 -0.23 637.03 -64.75 660.51"/><polygon class="cls-5" points="-388.35 847.34 -440.95 891.48 314.29 1684.71 -335.75 803.21 -388.35 847.34"/><polygon class="cls-5" points="994.81 847.34 942.21 803.21 292.17 1684.71 1047.41 891.48 994.81 847.34"/><polygon class="cls-5" points="671.21 660.51 606.69 637.03 297.35 1687.7 735.73 683.99 671.21 660.51"/></g></g><g class="cls-6"><g class="cls-4"><polygon class="cls-5" points="596.19 660.51 531.67 683.99 970.05 1687.7 660.71 637.03 596.19 660.51"/><polygon class="cls-5" points="272.59 847.34 219.99 891.48 975.23 1684.71 325.19 803.21 272.59 847.34"/></g></g></svg>