<svg id="圖層_1" data-name="圖層 1" xmlns="http://www.w3.org/2000/svg" xmlns:xlink="http://www.w3.org/1999/xlink" viewBox="0 0 570 953.18"><defs><style>.cls-1{fill:none;}.cls-2{fill:url(#未命名漸層_10);}.cls-3{clip-path:url(#clip-path);}.cls-4{opacity:0.64;}.cls-5{fill:#fff;}.cls-5,.cls-7{opacity:0.39;}.cls-6{clip-path:url(#clip-path-2);}.cls-8{clip-path:url(#clip-path-3);}.cls-9{clip-path:url(#clip-path-4);}.cls-10{clip-path:url(#clip-path-5);}</style><radialGradient id="未命名漸層_10" cx="250.45" cy="263.22" r="568.58" gradientUnits="userSpaceOnUse"><stop offset="0" stop-color="#fff"/><stop offset="0.19" stop-color="#dceff9"/><stop offset="0.42" stop-color="#bae0f3"/><stop offset="0.64" stop-color="#a2d5ef"/><stop offset="0.84" stop-color="#93ceec"/><stop offset="1" stop-color="#8ecceb"/></radialGradient><clipPath id="clip-path"><rect class="cls-1" x="-8.71" y="-14.16" width="587.34" height="982.17"/></clipPath><clipPath id="clip-path-2"><rect class="cls-1" x="-661.44" y="1074.8" width="585.06" height="978.36"/></clipPath><clipPath id="clip-path-3"><rect class="cls-1" x="-0.5" y="1074.8" width="585.06" height="978.36"/></clipPath><clipPath id="clip-path-4"><rect class="cls-1" x="660.43" y="1074.8" width="585.06" height="978.36"/></clipPath><clipPath id="clip-path-5"><rect class="cls-1" x="-1329.34" y="154.14" width="590.33" height="987.17"/></clipPath></defs><title>工作區域 1 複本</title><rect class="cls-2" x="-8.71" y="-14.16" width="587.34" height="982.17"/><g class="cls-3"><g class="cls-4"><polygon class="cls-5" points="287.46 -572.51 218.53 -572.51 287.46 524.86 356.39 -572.51 287.46 -572.51"/><polygon class="cls-5" points="287.46 1587.68 356.39 1587.68 287.46 490.31 218.53 1587.68 287.46 1587.68"/><polygon class="cls-5" points="-81.95 -507.38 -146.72 -483.8 293.37 523.82 -17.18 -530.95 -81.95 -507.38"/><polygon class="cls-5" points="656.88 1522.54 721.65 1498.97 281.56 491.35 592.11 1546.12 656.88 1522.54"/><polygon class="cls-5" points="-406.81 -319.82 -459.61 -275.51 298.57 520.82 -354.01 -364.13 -406.81 -319.82"/><polygon class="cls-5" points="981.74 1334.99 1034.54 1290.68 276.36 494.35 928.93 1379.29 981.74 1334.99"/><polygon class="cls-5" points="-647.93 -32.47 -682.39 27.23 302.42 516.22 -613.46 -92.16 -647.93 -32.47"/><polygon class="cls-5" points="1222.86 1047.63 1257.32 987.94 272.5 498.95 1188.39 1107.33 1222.86 1047.63"/><polygon class="cls-5" points="-776.23 320.03 -788.19 387.91 304.48 510.58 -764.25 252.14 -776.23 320.03"/><polygon class="cls-5" points="1351.15 695.14 1363.12 627.26 270.45 504.58 1339.18 763.02 1351.15 695.14"/><polygon class="cls-5" points="-776.23 695.14 -764.25 763.02 304.48 504.58 -788.19 627.26 -776.23 695.14"/><polygon class="cls-5" points="1351.15 320.03 1339.18 252.14 270.45 510.58 1363.12 387.91 1351.15 320.03"/><polygon class="cls-5" points="-647.93 1047.63 -613.46 1107.33 302.42 498.95 -682.39 987.94 -647.93 1047.63"/><polygon class="cls-5" points="1222.86 -32.47 1188.39 -92.16 272.5 516.22 1257.32 27.23 1222.86 -32.47"/><polygon class="cls-5" points="-406.81 1334.99 -354.01 1379.29 298.57 494.35 -459.61 1290.68 -406.81 1334.99"/><polygon class="cls-5" points="981.74 -319.82 928.93 -364.13 276.36 520.82 1034.54 -275.51 981.74 -319.82"/><polygon class="cls-5" points="-81.95 1522.54 -17.18 1546.12 293.37 491.35 -146.72 1498.97 -81.95 1522.54"/><polygon class="cls-5" points="656.88 -507.38 592.11 -530.95 281.56 523.82 721.65 -483.8 656.88 -507.38"/></g></g><g class="cls-6"><g class="cls-7"><polygon class="cls-5" points="325.16 833.18 272.56 789.04 -377.48 1670.55 377.76 877.31 325.16 833.18"/><polygon class="cls-5" points="1.56 646.35 -62.96 622.86 -372.3 1673.54 66.08 669.83 1.56 646.35"/></g></g><g class="cls-8"><g class="cls-7"><polygon class="cls-5" points="294.52 581.46 225.86 581.46 294.52 1674.58 363.18 581.46 294.52 581.46"/><polygon class="cls-5" points="-73.46 646.35 -137.98 669.83 300.41 1673.54 -8.94 622.86 -73.46 646.35"/><polygon class="cls-5" points="-397.06 833.18 -449.66 877.31 305.58 1670.55 -344.46 789.04 -397.06 833.18"/><polygon class="cls-5" points="986.1 833.18 933.5 789.04 283.46 1670.55 1038.7 877.31 986.1 833.18"/><polygon class="cls-5" points="662.5 646.35 597.98 622.86 288.64 1673.54 727.02 669.83 662.5 646.35"/></g></g><g class="cls-9"><g class="cls-7"><polygon class="cls-5" points="587.48 646.35 522.96 669.83 961.34 1673.54 652 622.86 587.48 646.35"/><polygon class="cls-5" points="263.88 833.18 211.28 877.31 966.52 1670.55 316.48 789.04 263.88 833.18"/></g></g><g class="cls-10"><g class="cls-4"><polygon class="cls-5" points="38.06 1047.24 50.09 979.01 -1048.14 855.71 26.03 1115.47 38.06 1047.24"/><polygon class="cls-5" points="38.06 670.21 26.03 601.99 -1048.14 861.74 50.09 738.44 38.06 670.21"/></g></g></svg>