<svg id="圖層_1" data-name="圖層 1" xmlns="http://www.w3.org/2000/svg" xmlns:xlink="http://www.w3.org/1999/xlink" viewBox="0 0 317.52 57.61"><defs><style>.cls-1{fill:none;}.cls-2{clip-path:url(#clip-path);}.cls-3{opacity:0.64;}.cls-4,.cls-5{fill:#fff;}.cls-4{opacity:0.39;}.cls-6{fill:#00a0e9;}</style><clipPath id="clip-path"><rect class="cls-1" x="463.06" y="318.09" width="587.34" height="982.17"/></clipPath></defs><title>工作區域 24</title><g class="cls-2"><g class="cls-3"><polygon class="cls-4" points="64.97 12.43 12.16 56.74 770.34 853.07 117.77 -31.88 64.97 12.43"/></g></g><path class="cls-5" d="M46.69,2.72c-4.29,0-33-.22-37.27-.14-5,.09-6.56,2.84-6.49,6.8.11,5.77-.31,12.51-.31,18.29S2,39.3,3.47,44.82c.37,1.37.7,2.77,1.16,4.11.69,2.07,2.43,1.94,4.76,2.46,2.1.47,4.21.81,6.31,1.24,15.48,3.13,33.79,1.54,49.72,1.82,17.84.31,36.82-.6,54.66-.5,35.7.21,72.49,1.67,108.18,1,16.52-.29,31.7-.68,48.18-.77,9.92-.05,20.13-.45,34.5-1.74,4.57-6.06,3.76-15.09,3.87-21.95.17-10,2.13-24.1-10.31-26.08-3.05-.48-6.58-.2-9.7-.47-5.36-.46-10.91-1.18-16.31-1.28-13-.25-26.09,0-39.11,0H27c-4.5,0,11.68-.13,7.18-.12"/><path class="cls-6" d="M46.69.23C40,.23,33.31.16,26.62.12L14.77.07c-2.84,0-6.16-.36-8.89.56A7.67,7.67,0,0,0,1,5.31C.11,7.77.48,10.6.45,13.16.37,20,.14,26.85,0,33.7A46,46,0,0,0,.8,44.37c.59,2.69,1.09,6.54,3.6,8.15a9.32,9.32,0,0,0,3.43,1.09c1.64.31,3.27.67,4.91,1,3.27.61,6.52,1.22,9.83,1.61,13.51,1.59,27.15.6,40.71.71,14.42.12,28.82-.18,43.24-.39,29.51-.43,59,.76,88.52,1,14.74.13,29.46,0,44.2-.31,14-.27,27.94-.37,41.91-.61q8.43-.15,16.84-.69c3.41-.21,6.82-.47,10.23-.76,1.74-.15,3.73.06,4.87-1.47a18.17,18.17,0,0,0,2.26-4.21c2.1-5.31,1.94-11.23,1.94-16.84,0-4.44.38-8.89.16-13.33-.21-4.19-.9-8.67-3.47-12.12-3.19-4.26-8.11-5.43-13.2-5.57-3.52-.1-7-.26-10.48-.6S283,.32,279.39.21C271.85,0,264.3.08,256.76.13c-30.21.22-60.43.1-90.64.1H27c-.58,0-1.12-.24-.13.08-.22,1.63-.45,3.26-.67,4.89,2.91-.27,5.87.13,8.78-.11C37.72,4.87,38.48,1,35.67.2A5.47,5.47,0,0,0,34.21.11c-3.21,0-3.21,5,0,5,.54,0,1.21.24.14-.08L35,.11C32.1.35,29.14,0,26.23.22a2.5,2.5,0,0,0-.66,4.89,9.13,9.13,0,0,0,2.66.1H212c13.8,0,27.6,0,41.4-.07,6.93-.06,13.86-.11,20.8,0s13.55.75,20.36,1.33c4.49.38,10.22-.77,14.05,2.24,2.62,2.06,3.48,5.68,3.78,8.89a99.26,99.26,0,0,1,0,12c-.13,4.94.31,10-.69,14.89a16.83,16.83,0,0,1-2.87,6.8L310.94,50c-12.52,1.12-25,1.67-37.58,1.76-14.83.12-29.65.48-44.48.74-30.39.55-60.78-.38-91.17-.82-14.9-.22-29.77-.15-44.66.13-14.35.28-28.69,0-43,.26-6.95.1-13.92.18-20.87-.25a158.78,158.78,0,0,1-20-3c-.61-.12-1.68-.14-2.12-.54s-.62-2.06-.75-2.56C6,44.82,5.8,43.94,5.6,43A44.43,44.43,0,0,1,5,32.54c.17-7,.42-14,.42-21,0-1.73-.39-4.36.91-5.57,1-1,2.69-.89,4.05-.89,3.11,0,6.21,0,9.31,0,8.05,0,16.11.09,24.16.13h2.82c3.2,0,3.21-5,0-5Z"/><path class="cls-6" d="M28.4,29.58c-.94.31-1.93.62-2.9.9v7.9c0,1.28-.25,2-1,2.39a7.36,7.36,0,0,1-3.53.51,7.88,7.88,0,0,0-.68-2.44c1,0,2,0,2.3,0s.46-.09.46-.46V31.25l-2.87.88-.63-2.55c1-.26,2.19-.54,3.5-.94V23.18H20V20.74h3.07V15.23H25.5v5.51h2.7v2.44H25.5V28l2.56-.77Zm10.26,8.69h3.43V35.09h2.45v6.16H42.09v-.91H29.85V35.12h2.39v3.15h3.92V34.15h-8v-2.1h2.45a14.84,14.84,0,0,0-1.76-1.31,10.16,10.16,0,0,0,2.55-3.21c-.59.14-1.16.28-1.76.4A7,7,0,0,0,28.49,26a29.21,29.21,0,0,0,8.29-2.7,33.38,33.38,0,0,0-3.15-3.38,22.25,22.25,0,0,1-3.47,2,8.82,8.82,0,0,0-1.53-1.79,14.8,14.8,0,0,0,6.7-4.88l2.5.51c-.34.48-.71.94-1.1,1.42h6.61l.46-.09,1.56.88C43.2,22.33,39.05,25,34.25,26.68l.12,0c-.12.28-.23.59-.37.9H44.06v2.14h-5.4v2.3h7v2.1h-7Zm-4-14.69-5.31.71-.14-1.65,5.34-.59Zm1.51,8.47v-2.3H32.83A13.1,13.1,0,0,1,31,32.05Zm-.77-13a32.58,32.58,0,0,1,3.1,3.18,13.18,13.18,0,0,0,3.41-3.18Z"/><path class="cls-6" d="M77,21.71s0,.93,0,1.25c-.29,11.7-.54,15.62-1.45,16.84A2.7,2.7,0,0,1,73.35,41a23.07,23.07,0,0,1-3.47,0,6.27,6.27,0,0,0-.77-2.41c1.37.11,2.56.14,3.13.14a1,1,0,0,0,1-.45c.66-.8.94-4.52,1.17-14.15H71c-.34,7.75-1.59,13.69-6.45,17.44a8.16,8.16,0,0,0-2-2.07,6.26,6.26,0,0,0,.59-.46C59.08,39.58,55,40,52,40.34l-.4-2.27c1.62-.11,3.7-.31,5.94-.51V35.43H52.35V33.5h5.17V32.08H52.43V23.5h5.09V22H51.67V20h5.85V18.52c-1.76.17-3.55.26-5.17.31a6.84,6.84,0,0,0-.63-1.9A84.14,84.14,0,0,0,64,15.48l1.31,1.94a48.17,48.17,0,0,1-5.37.88V20h5.65v1.68h3c.06-1.91.06-3.93.06-6.06h2.53c0,2.11,0,4.12-.06,6.06ZM54.57,27h3v-1.7h-3Zm3,3.35V28.58h-3v1.73Zm2.42,7c1.76-.17,3.6-.34,5.39-.54,2.25-3.15,3-7.39,3.19-12.61h-3V22H59.94V23.5h5.28v8.58H59.94V33.5h5.45v1.93H59.94ZM63,27v-1.7h-3V27Zm-3,1.62v1.73h3V28.58Z"/><path class="cls-6" d="M109.23,32.3H97.83v5.57c0,1.73-.48,2.47-1.67,2.87s-3.1.48-6,.46A12.25,12.25,0,0,0,89,38.58c2.27.09,4.54.09,5.2.06s.85-.2.85-.8V32.3H83.66V29.72H95.08v-4H85.59V23.15h9.49V19.29c-3,.26-6.14.45-9,.57a8.06,8.06,0,0,0-.62-2.3c6.7-.32,14.71-1,19.15-2.33l2,2.16A59.13,59.13,0,0,1,97.83,19v4.17h9.78v2.53H97.83v4h11.4Z"/><path class="cls-6" d="M121.87,30.68a32,32,0,0,0-1.36-3.09V41.28h-2.28V29a30.56,30.56,0,0,1-2.33,6.33,13.75,13.75,0,0,0-1.11-2.64,32.29,32.29,0,0,0,3.3-9.66h-2.61V20.57h2.75V15.23h2.28v5.34h2.13V23h-2.13v1.56c.65.94,2.24,3.58,2.58,4.27Zm17.59,2a15.54,15.54,0,0,1-3.3,4.4,3.55,3.55,0,0,0,2.44,1.6c.54,0,.88-1,1.11-3a7.08,7.08,0,0,0,1.71,1.34c-.6,3.32-1.59,4.29-2.79,4.23a5.66,5.66,0,0,1-4.29-2.67,20.93,20.93,0,0,1-4.74,2.56,12.71,12.71,0,0,0-1.39-1.71,17.75,17.75,0,0,0,5-2.75,25.45,25.45,0,0,1-1.5-4.92h-4.32a8.53,8.53,0,0,1,0,.88,35.79,35.79,0,0,1,3.75,3.27l-1.62,1.59A26.59,26.59,0,0,0,127,35.12a10.65,10.65,0,0,1-4,6.19,8.14,8.14,0,0,0-1.76-1.56,9.43,9.43,0,0,0,4-8h-2V29.72h8.16a115.18,115.18,0,0,1-1.19-14.32h2.21a96.46,96.46,0,0,0,1.22,14.32H137a20.59,20.59,0,0,0-2-1.54l1.16-1.05a8.18,8.18,0,0,0-2,.51c-.12-.39-.43-1.42-.66-1.93.46-.11.88-.57,1.39-1.28a23.3,23.3,0,0,0,1.54-2.3,7.58,7.58,0,0,0-2.59.54,14,14,0,0,0-.65-1.87c.34-.09.65-.46,1-1A18.81,18.81,0,0,0,136,15.48l2,.54a29.43,29.43,0,0,1-2.33,4.52l1.68-.17a15.4,15.4,0,0,0,.9-1.88l2,.72a40.31,40.31,0,0,1-4,6.16l2.3-.28c-.2-.49-.4-1-.57-1.48l1.53-.43A28.82,28.82,0,0,1,141,27.33l-1.65.57c-.08-.34-.19-.77-.31-1.22-1.08.17-1.9.28-2.56.4A17.82,17.82,0,0,1,139.06,29l-.74.71h2.3v2.07H134a21.9,21.9,0,0,0,1,3.27,13.47,13.47,0,0,0,2.19-3.18Zm-10.57-4.4c-.06-.32-.12-.69-.2-1.08-3.78.51-4.43.68-4.83.91a14.1,14.1,0,0,0-.66-1.91c.46-.08.94-.57,1.45-1.28a23.8,23.8,0,0,0,1.6-2.33,8.75,8.75,0,0,0-2.68.57,19.43,19.43,0,0,0-.62-1.87,2,2,0,0,0,1-1,20.41,20.41,0,0,0,2.16-4.74l2,.57a32.27,32.27,0,0,1-2.64,4.94l1.76-.17c.34-.6.65-1.22.94-1.85l1.9.71A43.19,43.19,0,0,1,126,25.88l2.27-.28c-.17-.54-.37-1.08-.54-1.57l1.6-.42a27,27,0,0,1,1.36,4.12Z"/><path class="cls-6" d="M160.31,36.82c-4.26,1-8.89,2-12.19,2.67l-.51-2.7c3.12-.54,7.93-1.53,12.47-2.47Zm11.14-12.27a34.61,34.61,0,0,1-4.89,9.91c.91,2.56,2,4.09,3.1,4.09.68,0,1-1.47,1.19-5.14a7,7,0,0,0,2.27,1.53c-.45,5.06-1.39,6.4-3.75,6.4-2,0-3.61-1.68-4.83-4.38a24.44,24.44,0,0,1-5.31,4.43,17.35,17.35,0,0,0-2-2.07,22.25,22.25,0,0,0,6.34-5.26,56.41,56.41,0,0,1-2-11.93H147.75V19.55h13.61c-.08-1.43-.11-2.87-.14-4.29h2.84c0,1.44,0,2.89.08,4.29h5.63a22.77,22.77,0,0,0-4.23-2.7l1.56-1.62A20.54,20.54,0,0,1,171.76,18l-1.36,1.51h2.07v2.58h-8.18a65.66,65.66,0,0,0,1.3,9,31.27,31.27,0,0,0,3.24-7.25Zm-12.14-.2V33H149.26V24.35Zm-2.55,2.24h-5.09V30.8h5.09Z"/><path class="cls-6" d="M178.55,40.34a9.58,9.58,0,0,0,1.93-5.11l1.85.45c-.32,2.16-.83,4.35-2.11,5.71Zm.54-8.32c1.45-.06,3.24-.12,5.17-.23V30h-4.52V28h4.52V26.39h-4.38V16.14h11.48V26.39h-4.72V28h4.75v2h-4.75v1.71l5.26-.29,0,2.1c-4.57.32-9.29.57-12.64.74Zm2.81-7.5h2.7V18h-2.7ZM183.29,19a16.77,16.77,0,0,1,.94,4.26l-1.28.34a18.78,18.78,0,0,0-.85-4.29Zm1.28,16.11a22.79,22.79,0,0,1,.74,4.88l-1.79.32a22.61,22.61,0,0,0-.6-4.95Zm2.7-.26a21.43,21.43,0,0,1,1.39,4.6l-1.67.46a21.91,21.91,0,0,0-1.34-4.66Zm2-16.85h-3v6.54h3Zm-2.81,5.2a31.27,31.27,0,0,0,1.25-4.32l1.42.54c-.57,1.42-1.14,3.16-1.62,4.24Zm3.46,11a16.37,16.37,0,0,1,2.39,4.29l-1.71.8a18.49,18.49,0,0,0-2.24-4.4Zm9.21-10.56v4.85h4.77V41.25h-2.53V40h-6.3v1.34h-2.45V28.52h3.95V15.26h2.56v6H205v2.45Zm2.24,7.3h-6.3v6.65h6.3Z"/><path class="cls-6" d="M225,35.48h11.82v1.79H225v1.6c0,1.27-.31,1.79-1.28,2.13a18.11,18.11,0,0,1-4.69.31,8.93,8.93,0,0,0-.85-2c1.53.06,3.18.06,3.61,0s.6-.14.6-.51V37.27h-11.8V35.48h11.8V34.29H213v-1.7h9.35v-1.2c-3.36.12-6.82.12-10,.06a5.18,5.18,0,0,0-.39-1.56c7.18.11,16.11-.14,20.65-.83l1.71,1.4c-2.56.37-5.86.65-9.35.82v1.31h8.81v1.7H225Zm-8.69-9.63h-5.52V24.46h5.52v-.82h-4.12V18.81h4.12V18h-4.95V16.53h4.95V15.2h2.07v1.33h5.17V18h-5.17v.83h4.35v1.67c2.3-.82,2.72-1.76,2.72-2.84V16.05H233v2.67c0,.6.06.8.45.8h1.6a7.64,7.64,0,0,0,1.42-.12c0,.57.08,1.37.14,1.94a4.84,4.84,0,0,1-1.51.14h-1.93c-2,0-2.44-.8-2.44-2.79V17.9h-3.13c0,1.67-.79,3.35-3.89,4.4a11.25,11.25,0,0,0-1-1.16v2.5h-4.35v.82h5.34v1.39h-5.34v1.74h2.44V26.17h1.93V29H212.16V26.17H214v1.42h2.28ZM214,20.71h2.31v-.85H214Zm2.31,1.88v-.86H214v.86Zm2.07-2.73v.85h2.47v-.85Zm2.47,1.87h-2.47v.86h2.47Zm13.89.71a9.09,9.09,0,0,1-3.21,4.12A23.66,23.66,0,0,0,237,27.79a7.86,7.86,0,0,0-1.34,1.87,21.07,21.07,0,0,1-6.19-1.87,23.53,23.53,0,0,1-5.57,1.59,7.89,7.89,0,0,0-.94-1.74,22,22,0,0,0,4.55-1,11,11,0,0,1-2.3-2.33l1.36-.45h-1.73V22.1h8.24l.42-.08Zm-7.44,1.4a8.86,8.86,0,0,0,2.27,1.84,8.09,8.09,0,0,0,2.19-1.84Z"/><path class="cls-6" d="M265.31,28.92a16.19,16.19,0,0,1-2.75,6.51,67.21,67.21,0,0,1,5.74,3.63l-1.76,2.14a49,49,0,0,0-5.77-3.84c-2.13,1.85-5,3.07-8.75,4a8.84,8.84,0,0,0-1.31-2.42A18.2,18.2,0,0,0,258.35,36c-1.82-1-3.66-2-5.34-2.79a45.55,45.55,0,0,0,2.13-4.26h-3.29l.22,1.59c-1.1.37-2.24.71-3.35,1v6.82c0,1.34-.28,2-1.08,2.42a9.32,9.32,0,0,1-3.95.45,10.38,10.38,0,0,0-.76-2.38c1.19.05,2.38.05,2.72,0s.54-.11.54-.54v-6l-3.41,1-.57-2.55c1.11-.29,2.5-.69,4-1.11V23.18h-3.61V20.74h3.61V15.23h2.53v5.51h2.87v2.44h-2.87V29l2.64-.74V26.54h4.78A47.77,47.77,0,0,0,257.67,22l2.73.37A40.88,40.88,0,0,1,259,26.54H263c.08-.69.14-1.37.19-2.11l2.87.06c-.08.71-.14,1.39-.25,2.05h2.84v2.38Zm-10.59-4.54h-2.48V18.67h6.57c-.23-1-.57-2.16-.86-3.13l2.62-.43a32.54,32.54,0,0,1,1.11,3.56h6.45v5.68h-2.56V21H254.72ZM258,28.92c-.54,1.2-1.05,2.33-1.56,3.35,1.19.57,2.44,1.23,3.69,1.88a12.25,12.25,0,0,0,2.36-5.23Z"/><path class="cls-6" d="M300.37,37.93v2.53H284.75V38.18c-3.44.8-7,1.59-9.69,2.19L274.52,38c1.16-.2,2.64-.48,4.26-.79V29.49h-3.89V27.25h3.89v-2.7h-2.33V23.3c-.46.45-.94.85-1.36,1.22A18.7,18.7,0,0,0,274,21.85,19.75,19.75,0,0,0,279.72,15l2,.91c-.17.34-.37.74-.57,1.1a29.8,29.8,0,0,1,4.69,3.64l-1.17,2.16A31.53,31.53,0,0,0,280,19a30.6,30.6,0,0,1-2.61,3.38h6.45v2.22H281v2.7h3.72v2.24H281v7.3l3.69-.77.14,1.91h3.3c.28-2.39.62-5.34.93-8.47H286V26.93h3.32c.23-2.61.46-5.22.57-7.61h-3.13V16.79h11.51c-.06,3.1-.14,6.65-.25,10.14h2.35v2.53h-2.47c-.11,3.13-.25,6.08-.42,8.47Zm-23.44-7.16A31.82,31.82,0,0,1,278,35.83l-1.76.51a33.78,33.78,0,0,0-1-5.12Zm4.63,4.71a45.59,45.59,0,0,0,1.14-5l1.93.54c-.54,1.74-1.05,3.7-1.56,4.95Zm9.92-6c-.31,3.13-.6,6.11-.88,8.47h4.29c.2-2.39.37-5.37.51-8.47Zm.85-10.14c-.17,2.39-.4,5-.6,7.61h3.78c.09-2.61.17-5.2.23-7.61Z"/></svg>