<svg id="圖層_1" data-name="圖層 1" xmlns="http://www.w3.org/2000/svg" viewBox="0 0 145.36 61.5"><defs><style>.cls-1{fill:#231815;}.cls-2{fill:#00a0e9;}</style></defs><title>工作區域 19</title><path class="cls-1" d="M94.76,27.21h-4.5V32.4H88.44V19.2h6.32a4,4,0,1,1,0,8ZM94.6,20.7H90.26v5H94.6a2.37,2.37,0,0,0,2.48-2.52A2.45,2.45,0,0,0,94.6,20.7Z"/><path class="cls-1" d="M105,32.62a6.5,6.5,0,0,1-6.4-6.8,6.41,6.41,0,1,1,12.8,0A6.5,6.5,0,0,1,105,32.62Zm0-12c-2.77,0-4.6,2.24-4.6,5.23S102.18,31,105,31s4.58-2.22,4.58-5.21S107.73,20.59,105,20.59Z"/><path class="cls-1" d="M116.53,32.62a14.51,14.51,0,0,1-5.36-1.07l.4-1.41a15.7,15.7,0,0,0,4.92.93c2.14,0,3.37-.83,3.37-2s-.64-1.59-3.65-2.7c-3.47-1.28-4.58-2.18-4.58-4.22s1.76-3.15,5-3.15a17.56,17.56,0,0,1,4.63.67L121,21.12a18.1,18.1,0,0,0-4.26-.55c-2.34,0-3.26.37-3.26,1.58s.86,1.69,4,2.92c3.41,1.34,4.24,2.1,4.24,4C121.66,31.13,119.66,32.62,116.53,32.62Z"/><path class="cls-1" d="M131.22,32.4l-1.31-3.35H124l-1.33,3.35h-1.8l5.31-13.2h1.53L133,32.4ZM127,21.18l-2.46,6.46h4.9Z"/><path class="cls-1" d="M136.82,27.09V32.4H135V27.09L130,19.2h1.88l4.08,6.26L140,19.2h1.88Z"/><rect class="cls-2" x="69.44" y="5.96" width="18.96" height="26.48"/><path class="cls-1" d="M3.9,32.4V19.2H5.72V30.83h6.74V32.4Z"/><path class="cls-1" d="M22.39,32.4l-1.3-3.35H15.18L13.85,32.4h-1.8l5.31-13.2h1.53L24.2,32.4ZM18.13,21.18l-2.46,6.46h4.9Z"/><path class="cls-1" d="M36.91,32.4,33,27H29V32.4H27.17V19.2h6.4a3.93,3.93,0,0,1,4.13,3.92,3.74,3.74,0,0,1-2.76,3.67l4.13,5.61ZM33.36,20.7H29v4.86h4.36a2.32,2.32,0,0,0,2.49-2.44A2.4,2.4,0,0,0,33.36,20.7Z"/><path class="cls-1" d="M44.5,32.62a6.51,6.51,0,0,1-6.41-6.8,6.42,6.42,0,1,1,12.81,0A6.51,6.51,0,0,1,44.5,32.62Zm0-12c-2.78,0-4.6,2.24-4.6,5.23S41.72,31,44.5,31s4.58-2.22,4.58-5.21S47.27,20.59,44.5,20.59Z"/><path class="cls-1" d="M61.17,21a11.62,11.62,0,0,0-2.92-.37c-3.43,0-5.61,2.12-5.61,5.21S54.82,31,58.25,31a13.14,13.14,0,0,0,2.92-.39l.35,1.46a11.78,11.78,0,0,1-3.39.52c-4.26,0-7.31-3-7.31-6.82s3-6.8,7.31-6.8a10.5,10.5,0,0,1,3.41.5Z"/><path class="cls-1" d="M71.38,32.4v-6H64.5v6H62.67V19.2H64.5v5.63h6.88V19.2h1.84V32.4Z"/><path class="cls-1" d="M74.84,32.4V19.2H84v1.56H76.69v4h6.82v1.56H76.69v4.48H84V32.4Z"/><path class="cls-1" d="M120.16,40v1.37h-.47V40a2.69,2.69,0,0,1,.24-5.32,2.5,2.5,0,0,1,2.43,2.66A2.52,2.52,0,0,1,120.16,40Zm-.23-4.91a2.05,2.05,0,0,0-2,2.25,2,2,0,1,0,3.94,0A2.05,2.05,0,0,0,119.93,35.06Z"/><path class="cls-1" d="M124.81,40a1.89,1.89,0,0,1-2-1.89V34.73h.47v3.39a1.42,1.42,0,0,0,1.56,1.46,1.45,1.45,0,0,0,1.57-1.46V34.73h.47v3.36A1.9,1.9,0,0,1,124.81,40Z"/><path class="cls-1" d="M27,39.89V34.73h.47v4.76H30.2v.4Z"/><path class="cls-1" d="M34.31,39.89l-.58-1.44H31.2l-.57,1.44h-.48l2.14-5.16h.34l2.15,5.16ZM32.46,35.3l-1.11,2.77h2.23Z"/><path class="cls-1" d="M37.29,39.89H35V34.73H37c1.12,0,1.67.53,1.67,1.32a1.2,1.2,0,0,1-.82,1.13,1.27,1.27,0,0,1,1,1.28A1.45,1.45,0,0,1,37.29,39.89Zm-.24-4.76H35.43V37H37c.65,0,1.21-.28,1.21-.94S37.75,35.13,37.05,35.13Zm.2,2.29H35.43v2.07h1.83a1,1,0,1,0,0-2.07Z"/><path class="cls-1" d="M41.37,40a2.68,2.68,0,1,1,2.43-2.66A2.5,2.5,0,0,1,41.37,40Zm0-4.92a2,2,0,0,0-2,2.26,2,2,0,1,0,3.94,0A2.05,2.05,0,0,0,41.37,35.06Z"/><path class="cls-1" d="M48.21,39.89l-1.65-2.24h-1.8v2.24H44.3V34.73h2.33A1.47,1.47,0,0,1,48.2,36.2a1.43,1.43,0,0,1-1.15,1.41l1.69,2.28Zm-1.58-4.76H44.76v2.14h1.87a1,1,0,0,0,1.1-1.07A1.06,1.06,0,0,0,46.63,35.13Z"/><path class="cls-1" d="M52.73,39.89l-.57-1.44H49.62l-.57,1.44h-.47l2.14-5.16h.34l2.15,5.16ZM50.89,35.3l-1.11,2.77H52Z"/><path class="cls-1" d="M54.66,35.13v4.76h-.47V35.13H52.42v-.4h4v.4Z"/><path class="cls-1" d="M58.55,40A2.68,2.68,0,1,1,61,37.32,2.5,2.5,0,0,1,58.55,40Zm0-4.92a2.05,2.05,0,0,0-2,2.26,2,2,0,1,0,3.94,0A2.05,2.05,0,0,0,58.55,35.06Z"/><path class="cls-1" d="M61.52,39.89V34.73H62v5.16Z"/><path class="cls-1" d="M66.79,39.89l-1.66-2.24h-1.8v2.24h-.46V34.73H65.2a1.47,1.47,0,0,1,1.57,1.47,1.43,1.43,0,0,1-1.15,1.41l1.69,2.28ZM65.2,35.13H63.33v2.14H65.2a1,1,0,0,0,1.1-1.07A1.06,1.06,0,0,0,65.2,35.13Z"/><path class="cls-1" d="M67.58,39.89V34.73H71v.4h-3V37h2.78v.4H68.05v2.07h3v.4Z"/><path class="cls-1" d="M73.59,39.89h-1V34.73h1c1.76,0,3,1.09,3,2.58S75.35,39.89,73.59,39.89Zm.07-4.76H73v4.36h.64a2.2,2.2,0,1,0,0-4.36Z"/><path class="cls-1" d="M77,39.89V34.73h3.44v.4h-3V37h2.78v.4H77.47v2.07h3v.4Z"/><path class="cls-1" d="M85,39.89l-1.65-2.24h-1.8v2.24h-.47V34.73h2.34A1.46,1.46,0,0,1,85,36.2a1.43,1.43,0,0,1-1.14,1.41l1.69,2.28Zm-1.58-4.76H81.52v2.14h1.87a1,1,0,0,0,1.1-1.07A1.06,1.06,0,0,0,83.39,35.13Z"/><path class="cls-1" d="M90.08,39.89V35.58l-1.79,3.63H88L86.2,35.58v4.31h-.45V34.73h.45l1.94,3.87,1.94-3.87h.45v5.16Z"/><path class="cls-1" d="M94.87,39.89l-.57-1.44H91.76l-.57,1.44h-.47l2.14-5.16h.34l2.15,5.16ZM93,35.3l-1.11,2.77h2.22Z"/><path class="cls-1" d="M96.8,35.13v4.76h-.47V35.13H94.56v-.4h4v.4Z"/><path class="cls-1" d="M100.69,40a2.68,2.68,0,1,1,2.43-2.66A2.5,2.5,0,0,1,100.69,40Zm0-4.92a2.05,2.05,0,0,0-2,2.26,2,2,0,1,0,3.94,0A2.05,2.05,0,0,0,100.69,35.06Z"/><path class="cls-1" d="M103.62,39.89V34.73h.47v4.76h2.71v.4Z"/><path class="cls-1" d="M109,40a2.68,2.68,0,1,1,2.43-2.66A2.5,2.5,0,0,1,109,40Zm0-4.92a2,2,0,0,0-2,2.26,2,2,0,1,0,3.94,0A2.05,2.05,0,0,0,109,35.06Z"/><path class="cls-1" d="M114.3,40a2.71,2.71,0,0,1-2.85-2.67,2.61,2.61,0,0,1,2.84-2.66,5.41,5.41,0,0,1,1.34.17l-.07.38a5.41,5.41,0,0,0-1.29-.14,2.16,2.16,0,0,0-2.35,2.25,2.23,2.23,0,0,0,2.35,2.27,5.86,5.86,0,0,0,1.12-.12V37.61h.42v2.14A5.28,5.28,0,0,1,114.3,40Z"/><path class="cls-1" d="M116.54,39.89V34.73H117v5.16Z"/><path class="cls-1" d="M127.61,39.89V34.73h3.44v.4h-3V37h2.77v.4h-2.77v2.07h3v.4Z"/><path class="cls-1" d="M28.56,48.32H27.05V47.18h1.51V43.52H27V42.35h4.26v1.17H29.74v3.66h1.42v1.14H29.74v4.09c.65-.26,1.16-.47,1.5-.64l.49,1.14a10.37,10.37,0,0,1-1.76.74,21.89,21.89,0,0,1-2.76.9l-.49-1.16,1.84-.57Zm6.52,4H31.81V51.17h3.27V49.7H31.9a.14.14,0,0,1-.15-.16v-7a.16.16,0,0,1,.15-.16h7.51c.15,0,.2.07.2.16v7c0,.11,0,.16-.2.16H36.23v1.47h3.4v1.15h-3.4v1.76h4v1.14h-9V54.08h3.94Zm0-8.8H32.94s0,0,0,0v2h2.16Zm0,3.11H32.92v1.88l0,.05h2.14Zm1.15-1.14h2.19v-2l-.05,0H36.23Zm0,3.07h2.14l.05-.05V46.63H36.23Z"/><path class="cls-1" d="M59.73,45.87v-.78h2.48v-.43H59.35c-.14,0-.19.07-.19.19v4.64a20.66,20.66,0,0,1-.81,6.06l-1.16-.5a14.37,14.37,0,0,0,.88-5.14v-6a.25.25,0,0,1,.28-.28h3.93V41.87h1.19v.36H70v.91H63.47v.5h6.21l.83.49a5.71,5.71,0,0,1-.43,2.1L69,46a5.14,5.14,0,0,0,.31-1.15c.05-.11,0-.16-.12-.16h-6v.43H67.3v.78h-4l.07.12a.6.6,0,0,0,.43.17h3.69a.39.39,0,0,0,.26-.12,2.91,2.91,0,0,0,.33-.91l.88.36a4.51,4.51,0,0,1-.38,1.24,1.12,1.12,0,0,1-.69.4H63.18a1.27,1.27,0,0,1-.68-.33,1,1,0,0,1-.29-.69v-.24Zm10.35,4.76H60c-.1,0-.15-.05-.15-.14v-3a.14.14,0,0,1,.15-.15H70.08c.1,0,.12.07.12.15v3C70.2,50.58,70.18,50.63,70.08,50.63Zm-8.77,5H60.19v-4.5c0-.16.07-.23.24-.23H69.7a.21.21,0,0,1,.24.23v3.22a1.21,1.21,0,0,1-.52,1c-.58.41-1.6.46-3.07.15l0-1.29a3.63,3.63,0,0,0,2.24.15.66.66,0,0,0,.24-.36H61.31Zm3.16-7.47H61l-.05,0v.4h3.5Zm0,1.19H61v.38l.05,0h3.45Zm4.35,2.79v-.36s0-.1-.07-.1H61.38c-.07,0-.07.05-.07.1v.36Zm0,1.16v-.43H61.31v.43Zm-3.26-4.69h3.55v-.4l0,0h-3.5Zm0,1.17h3.5l0,0v-.38H65.56Z"/><path class="cls-1" d="M96.23,46.73h-3v-.86h3v-.64H94.35l-.43.48-.83-.6a3.41,3.41,0,0,0,.9-1.33H88.74a.13.13,0,0,0-.12.12v.52h4.23v.86H91.21v.64h1.45v.88H91.21v.71l1.69-.21.14,1a26.59,26.59,0,0,1-5.14.33l-.09-1,2.31-.05V46.8H88.57v-.88h1.55v-.64h-2v-.12h-.59V43c0-.13.06-.2.21-.2h5.71V42h1.26v.75h5.18l.93.48a11.33,11.33,0,0,1-.43,2.19l-1.07-.33L99.63,44c0-.1,0-.17-.14-.17H95l-.19.59h4.33v.86H97.33v.64h2.9v.86h-2.9v.9h1.38c.09,0,.14-.05.14-.17V47h1v1.12c0,.28-.12.42-.43.42H94.18a.39.39,0,0,1-.44-.42V47h1v.47c0,.12,0,.17.16.17h1.31Zm-4.85,7.35.33,1a8.5,8.5,0,0,1-3.88.59l-.12-1.23a8.37,8.37,0,0,0,3.4-.36H89c-.11,0-.14,0-.14-.15v-4.8c0-.1,0-.12.14-.12H99.09c.09,0,.14,0,.14.12v4.8c0,.1,0,.15-.14.15h-1c.71.12,1.52.31,2.42.54l-.3,1.17a17.72,17.72,0,0,0-3.83-.74l0-1Zm6.76-3.64v-.55l-.06,0H90l0,0v.55Zm0,1.4V51.3H90v.54ZM90,52.7v.47l0,0h8.08l.06,0V52.7Z"/><path class="cls-1" d="M122.81,44.47l.31.35c-.05.55-.12,1.08-.19,1.6a15,15,0,0,1-4,7.23l-1.12-.86a17.74,17.74,0,0,0,2.67-3,11.2,11.2,0,0,0,1.5-3.66.36.36,0,0,0,0-.21.67.67,0,0,0-.36-.1h-3.47V44.47Zm2.42,9.44a1.47,1.47,0,0,1-.69,1.33c-.59.45-1.81.36-3.59-.28l.1-1.36,1.33.45c.71.17,1.21.17,1.43,0a.57.57,0,0,0,.16-.46V42h1.26v1.78l.1.5a18.54,18.54,0,0,0,5.8,9.3l-1.14.83a23.74,23.74,0,0,1-4.76-6.92Zm5.4-9.78a21.34,21.34,0,0,1-2.8,3.76l-1-.83a20.67,20.67,0,0,0,2.75-3.66Z"/></svg>