<svg id="圖層_1" data-name="圖層 1" xmlns="http://www.w3.org/2000/svg" xmlns:xlink="http://www.w3.org/1999/xlink" viewBox="0 0 259.31 86"><defs><style>.cls-1{fill:none;}.cls-2{clip-path:url(#clip-path);}.cls-3{opacity:0.64;}.cls-4{fill:#00a0e9;}</style><clipPath id="clip-path"><rect class="cls-1" x="939.64" y="262.84" width="587.34" height="982.17"/></clipPath></defs><title>工作區域 20</title><path class="cls-4" d="M81,26.83c-.28.76-.56,1.5-.79,2.14l3.14-.18c0,.66.07,1.32.11,2q-6.81.38-13.62.88c0-.66-.09-1.32-.14-2l3-.21a11.7,11.7,0,0,0-.85-2.1L73.13,27l-3,.21L70,25.39,75.5,25a9.08,9.08,0,0,0-.87-1.52l2.2-.49A10.71,10.71,0,0,1,78,24.85l4.68-.27c0,.62.07,1.24.11,1.86l-3.15.18Zm1.62,14.94c.07,1.12-.13,1.65-.86,2a10.3,10.3,0,0,1-3.49.53,6.51,6.51,0,0,0-.78-1.87,21.84,21.84,0,0,0,2.31-.12c.31-.05.42-.14.4-.43,0-.79-.09-1.58-.14-2.37-1.84.83-3.61,1.63-5.18,2.37l-.78-1.59A10.55,10.55,0,0,1,72.86,45,7.93,7.93,0,0,0,71,43.82c1.16-2,1.13-4.54,1-6.51l-.33-4.58q5.22-.37,10.45-.67C82.24,35.3,82.43,38.53,82.61,41.77Zm-10.3-17.2-2.48.17c-.1-1.43-.2-2.86-.31-4.29Q75.25,20,81,19.7a11.34,11.34,0,0,0-1-1.64l2.86-.59a8.35,8.35,0,0,1,1.33,2.05q5.32-.29,10.65-.5l.18,4.3-2.57.11-.09-2.12q-10.11.44-20.2,1.14Zm1.75,12.65a23.57,23.57,0,0,1,0,2.81c1.57-.48,3.69-1.25,5.86-2l-.25-4.1-5.85.38Zm1-2.2a33.69,33.69,0,0,1,4.27,1.14l-.69,1.51c-1-.4-2.89-.94-4.31-1.31Zm-1-8.05a10.79,10.79,0,0,1,1,2.33l2.78-.18a24.37,24.37,0,0,0,.68-2.43Zm21,12.66a8.77,8.77,0,0,0,1.52.43c-.19,2.48-.85,3.25-3.07,3.34l-4.88.23c-2.85.14-3.72-.44-3.85-2.88l-.54-10q3.94-.21,7.89-.39l-.06-1.52q-4,.18-7.91.39c-.12-2.13-.23-4.26-.35-6.39l2.51-.13.09,1.69q4.13-.21,8.25-.38c0,.59,0,1.19.07,1.78-2.74.11-5.49.24-8.23.38l.06,1.26c2.65-.14,5.31-.26,8-.37.06,1.62.13,3.23.2,4.85q-4,.17-7.91.36L87,33.46c2.42-.12,4.83-.24,7.25-.34l.06,1.46L87,34.92,87.09,36q3.52-.18,7.06-.33l.06,1.46-7,.33.06,1.15q3.94-.21,7.87-.36Zm-1.87,1.72c.87,0,1.09-.31,1.18-1.57-2.39.1-4.77.21-7.16.33l0,.49c.05.89.29,1,1.58.95Z"/><path class="cls-4" d="M121.08,34.33A15.5,15.5,0,0,1,115.73,39a62.18,62.18,0,0,0,9.52,1.3,11,11,0,0,0-1.5,2.47,50.1,50.1,0,0,1-11.46-2.16,56.42,56.42,0,0,1-11.43,2.71,7.37,7.37,0,0,0-1.43-2.2,58,58,0,0,0,9.63-1.8,24.75,24.75,0,0,1-3.82-2.25A35.29,35.29,0,0,1,101.73,39a16,16,0,0,0-1.91-1.72,28.83,28.83,0,0,0,3.57-1.66,17.73,17.73,0,0,1-2-2.18l2.1-1a15.34,15.34,0,0,0,1.89,1.89,15.71,15.71,0,0,0,3.11-2.66c-1.2-.26-1.6-.91-1.63-2.37l-.06-2.44,2.52-.06,0,2.41c0,.6.22.68,1.34.66l3.74-.07c.82,0,1-.21,1.09-1.65a7.35,7.35,0,0,0,2.12.72c-.21,2.24-.9,2.82-2.89,2.85l-3.73.07.29.11A13.93,13.93,0,0,1,110,33.46c3-.07,6-.11,8.94-.14l.47-.09ZM102.3,28.52l-2.58.08c-.06-1.69-.12-3.38-.17-5.07l5.1-.16A10.83,10.83,0,0,0,103,21l1.52-.65c-1.24.09-2.48.16-3.69.23a8.23,8.23,0,0,0-.63-2c7.23-.43,16-1.12,20.71-2.09l1.85,1.83c-3.08.62-7,1.09-11.08,1.48a8.88,8.88,0,0,1,1.53,2.78l-1.79.67,5.05-.08A34.36,34.36,0,0,0,119,19l2.68.89c-.77,1.1-1.62,2.25-2.38,3.21l5,0c0,1.79,0,3.57,0,5.36l-2.7,0c0-1.1,0-2.19,0-3.28-3.25,0-6.49.07-9.74.13a17.22,17.22,0,0,1,3,1.7c-.47.52-.93,1-1.39,1.57a21.52,21.52,0,0,0-4.3-2.42l.78-.82-7.77.21ZM100.94,31a8.17,8.17,0,0,0,3-4.17l2.11.8a9,9,0,0,1-3.08,4.74ZM111.1,19.8c-1.86.18-3.78.31-5.65.45a8.55,8.55,0,0,1,1.7,2.56l-1.17.52,4.9-.11a10.92,10.92,0,0,0-1.45-2.78Zm-3.81,15.93a23.64,23.64,0,0,0,5.24,2.39A16,16,0,0,0,117,35.35q-4.69.06-9.38.17Zm11.61-9.47a22.85,22.85,0,0,1,4.63,4.39l-2,1.44a21.76,21.76,0,0,0-4.51-4.49Z"/><path class="cls-4" d="M151.05,29.47c-.26,2.72-.53,4.9-.78,6.61l3,.1-.09,2.44-3.33-.11a7.31,7.31,0,0,1-1.18,3,3.32,3.32,0,0,1-2.58,1.45,28.56,28.56,0,0,1-4.43-.1,5.79,5.79,0,0,0-.73-2.39c1.79.17,3.26.24,4,.25a1.39,1.39,0,0,0,1.28-.51,4.45,4.45,0,0,0,.8-1.76q-8.47-.23-17-.26c.53-2.44,1.1-5.65,1.65-9.06l-3.34,0c0-.82,0-1.64,0-2.47l3.73,0c.46-3.07.87-6.11,1.19-8.8q9.33.07,18.65.38s0,1.06-.07,1.46c-.21,2.78-.41,5.21-.59,7.33l3.08.11-.09,2.46ZM147.48,36c.28-1.65.54-3.83.82-6.61q-6.88-.18-13.79-.26c-.4,2.38-.77,4.64-1.11,6.62Q140.44,35.81,147.48,36ZM135.85,20.31c-.29,2-.64,4.24-1,6.36q6.81.06,13.63.26c.17-1.89.32-4,.5-6.36Q142.44,20.39,135.85,20.31Zm6.87,15.35a22.64,22.64,0,0,0-5.57-4.17l1.71-1.56a23,23,0,0,1,5.71,4ZM140,21.11a25,25,0,0,1,5.42,3.53l-1.72,1.74a25.29,25.29,0,0,0-5.32-3.69Z"/><path class="cls-4" d="M165.27,33.87q-.26,4.83-.49,9.66l-2.41-.11.45-9.67-5.47-.23.09-2.27c1.83.08,3.66.15,5.49.24,0-.8.07-1.61.11-2.41l-5.83-.25.09-2.26c2.66.1,5.33.22,8,.35.5-1.27,1.12-3,1.45-4.18l2.45.62c-.57,1.23-1.08,2.58-1.61,3.68l3,.16-.13,2.26-4.92-.26-.12,2.41,4.58.24-.12,2.26Zm-3.45,1.33a27.23,27.23,0,0,1-3.11,6,15,15,0,0,0-1.85-1.36,19.4,19.4,0,0,0,2.75-5.35Zm8.44-12.47q-6.1-.35-12.23-.59l.09-2.23q2.5.09,5,.21c-.26-.73-.56-1.46-.85-2.08l2.61-.54a24.89,24.89,0,0,1,1.26,2.77l4.24.22C170.35,21.24,170.31,22,170.26,22.73Zm-9.72,3.77a16.74,16.74,0,0,0-.85-3.54l2.17-.34A14,14,0,0,1,162.8,26ZM168,40a28.56,28.56,0,0,0-1.95-4.35l1.82-.8a29.55,29.55,0,0,1,2,4.19ZM180.68,42c.51,0,.66-.36.95-3.59a6.36,6.36,0,0,0,2.09,1.16c-.49,3.94-1.17,4.86-2.89,4.74l-1.92-.13c-2.07-.14-2.48-.92-2.33-3.24.11-1.79.23-3.59.35-5.38l-1.8-.12c-.68,4.25-2,7.12-6.45,8.57A6.52,6.52,0,0,0,167.29,42c3.81-1.12,4.82-3.3,5.31-6.66l-1.69-.1L171.84,19q5.78.33,11.54.75l-1.17,16.23-2.81-.2c-.13,1.8-.25,3.59-.37,5.39-.05.66,0,.77.46.81Zm-6.63-18.18,6.43.41.16-2.4c-2.15-.15-4.29-.29-6.44-.42Zm-.28,4.58,6.39.41c.06-.82.12-1.64.17-2.46L173.92,26ZM173.5,33q3.17.18,6.35.41c.05-.82.11-1.65.17-2.47l-6.38-.41C173.59,31.36,173.55,32.18,173.5,33Z"/><path class="cls-4" d="M52.47,22.09c2.2,5.47,5.41,10.45,7.81,15.84Q62,41.82,63.5,45.81a49.1,49.1,0,0,0,2.33,6.12,6.19,6.19,0,0,0,5.71,3.38,28.47,28.47,0,0,0,4.22-.53c1.49-.24,3-.33,4.5-.45q9.33-.75,18.68-1.2a590.1,590.1,0,0,1,74.87,1.18c3,.25,6.09.52,9.13.8,2.46.23,5.09.26,7.17-1.27,2.43-1.78,3-5.11,3.92-7.82L197,37.11c1.94-5.86,3.93-11.71,5.8-17.59a3.92,3.92,0,0,0-.72-4.18c-1-1-2.5-1.31-3.79-1.72-2.77-.88-5.59-1.62-8.43-2.25-11.35-2.5-23-3.19-34.61-3.37-11.8-.19-23.58,0-35.37-.39-12.17-.36-24.36-.84-36.52-.07A129.56,129.56,0,0,0,65,9.81a44.58,44.58,0,0,0-8.13,2.55c-2.32,1-4.56,2.13-5.43,4.67a5.46,5.46,0,0,0,2.18,6.59c2.84,1.68,5.42-2.74,2.59-4.42.05,0,0,.66,0-.17,0,.12.09-.3.11-.35.19-.52.76-.81,1.33-1.09a31,31,0,0,1,5.82-2.14A86.38,86.38,0,0,1,78,13.08a254.58,254.58,0,0,1,30.38-.69c10.11.25,20.21.63,30.32.65,9.68,0,19.37-.07,29,.53a143.08,143.08,0,0,1,16,1.8q4,.69,7.85,1.67,2,.51,4,1.11c.59.17,1.18.36,1.76.55l.88.28c.89.28-.05.13-.14-.44V17.18a25.89,25.89,0,0,1-1.32,4.26c-.52,1.57-1,3.13-1.55,4.69q-1.52,4.57-3,9.15l-2.94,8.91c-.47,1.44-.9,2.9-1.43,4.31-.33.89-.64,1.39-1.62,1.57a12.92,12.92,0,0,1-3.51-.1l-4.93-.45q-4.69-.41-9.39-.73-9.63-.67-19.3-1-19.2-.72-38.41-.18-9.61.27-19.2.85c-3.23.2-6.47.42-9.7.67-3,.23-5.92.64-8.89,1a8.83,8.83,0,0,1-1.84.1c-.35-.07.23.23-.28-.12.31.21-.26-.28-.28-.31a9.7,9.7,0,0,1-1-2.26c-1-2.89-2.08-5.72-3.25-8.52-1.35-3.21-2.75-6.41-4.39-9.48a94,94,0,0,1-4.48-8.77,2.63,2.63,0,0,0-3.14-1.79,2.58,2.58,0,0,0-1.79,3.15Z"/><path class="cls-4" d="M59.76,29.63a117.38,117.38,0,0,0-23.83,2.91c-8.1,1.83-16.07,4.21-24.07,6.43-2.87.79-2.14,4.84.68,5a125.44,125.44,0,0,1,17,2.46c2.81.57,5.6,1.19,8.4,1.8l4.23.91a25.3,25.3,0,0,1,4.18.92l-1.12-.66a2.35,2.35,0,0,1-.34-1.82c-.07.25-.11,0,.14-.3,0,0-.06.16-.1.17s-.36.54-.1.18-.18.21-.26.3a25.87,25.87,0,0,1-2.28,2.16c-1.58,1.36-3.25,2.62-4.89,3.91a38.82,38.82,0,0,0-4.14,4.07c-2.06,2.19-4.1,4.4-6,6.7-1.16,1.38-2.23,2.83-3.32,4.26-1.32,1.73-3.12,3.35-4.12,5.28a2.68,2.68,0,0,0,.4,3.1c1.16,1.47,2.94,1,4.46.52l4.44-1.37q4.23-1.32,8.48-2.6C43,72.34,48.52,70.8,54.07,69.52a166.4,166.4,0,0,1,17.69-3.18c5.51-.67,11-1.15,16.5-2.22a11,11,0,0,0,5.85-2.67,6.22,6.22,0,0,0,1.66-3c.34-1.58-.27-3.18.07-4.72.71-3.21-4.23-4.58-4.93-1.36a15.74,15.74,0,0,0-.1,4.28c0,.61.09.39-.06.81s.3-.45-.08.17c-.27.44.22-.17-.18.23,0,0-.35.32,0,.06a4.81,4.81,0,0,1-.41.27c-.19.11-.37.21-.56.3-.38.19.3-.11-.11.05a16.33,16.33,0,0,1-2.49.67c-4.84,1-9.76,1.39-14.66,2A201.16,201.16,0,0,0,39.94,68c-2.92.84-5.84,1.73-8.75,2.63l-4.32,1.33-2.21.69a13.65,13.65,0,0,1-2.29.76l1.3.35.15.11c.14,1,.27,2.06.4,3.1A25.81,25.81,0,0,1,27,73.41l1.5-2,.9-1.19c.08-.09.89-1.14.48-.62,1.42-1.79,3-3.5,4.5-5.19A62.43,62.43,0,0,1,42,56.93c1.45-1.12,2.89-2.25,4.27-3.46a14.24,14.24,0,0,0,3.22-3.53,3.59,3.59,0,0,0,.4-2.68c-.48-1.68-2.14-2.19-3.68-2.5-3.45-.7-6.9-1.46-10.34-2.21a157,157,0,0,0-23.29-3.67c.23,1.67.46,3.35.68,5,7.87-2.18,15.71-4.51,23.67-6.33a110.83,110.83,0,0,1,22.87-2.82c3.29-.06,3.3-5.18,0-5.12Z"/><path class="cls-4" d="M69.69,55a2.16,2.16,0,0,1,.53.13,10.06,10.06,0,0,1,1.15.66,17.88,17.88,0,0,0,2.45,1.38A37.39,37.39,0,0,0,79,58.57c.76.21,1.53.41,2.28.64.41.12.81.25,1.2.4-.65-.24.25.11.26.11l.68.29c.88.33,1.81.56,2.7.87a17,17,0,0,0,3.27.94A2.65,2.65,0,0,0,92.56,60a2.58,2.58,0,0,0-1.79-3.15,34.19,34.19,0,0,1-6-1.81c-.64-.21.31.13,0,0s-.59-.26-.9-.38-.86-.31-1.3-.44c-.82-.24-1.64-.46-2.46-.68l-2.7-.69-1.05-.25a4.69,4.69,0,0,1-.61-.18c.3.12-.19-.12-.27-.16-1.9-1.05-3.51-2.37-5.78-2.42-3.29-.08-3.29,5,0,5.11Z"/><path class="cls-4" d="M167.28,53.25a27.26,27.26,0,0,1,0,3.94,29.87,29.87,0,0,0-.45,4.3c.19,2.55,2.43,3.8,4.78,3.71a87.36,87.36,0,0,1,15.13,1.25A190.31,190.31,0,0,1,219.51,74a82.18,82.18,0,0,1,8.35,3c2.59,1.17,5.22,2.52,8.15,2.44a2.58,2.58,0,0,0,2.55-2.56c-.3-3.13-3.32-5.32-5.38-7.45-2.22-2.28-4.45-4.56-6.69-6.81s-4.38-4.4-6.59-6.57a32.19,32.19,0,0,0-3.15-2.67,7,7,0,0,1-2.07-2.13c-.31,1.17-.61,2.34-.92,3.5.32-.2-.13,0-.26.09.15,0,.3-.11.45-.15.38-.11.77-.2,1.16-.28s1-.18,1.53-.26l1.43-.2c2.89-.37,5.79-.66,8.69-1,5-.57,10-1.42,14.94-2.44a31.47,31.47,0,0,0,6.21-1.6,2.56,2.56,0,0,0,.92-3.5c-1.28-1.89-3.48-2.67-5.49-3.55-2.17-.94-4.37-1.81-6.61-2.58a116.93,116.93,0,0,0-13.29-3.61c-9-1.91-18.05-3.11-27-5a2.67,2.67,0,0,0-2.89,1.18,3.37,3.37,0,0,0-.43,1.61l-.06.44c-.07.54.13-.4.22-.53a2.57,2.57,0,0,0,.91,3.5,2.61,2.61,0,0,0,3.5-.91,3.41,3.41,0,0,0,.43-1.62l.06-.44c.06-.54-.13.4-.22.53l-2.88,1.18c8.52,1.76,17.16,2.93,25.69,4.69a127.53,127.53,0,0,1,12.45,3.17c2,.65,4,1.36,6,2.15,1,.38,1.88.78,2.8,1.2.54.25,2.07.68,2.38,1.14l.92-3.5c.78-.34.25-.12-.16,0s-.77.2-1.15.29c-1.08.26-2.17.49-3.25.72q-3.72.76-7.47,1.43c-5,.87-10.15,1.25-15.38,1.92-2.08.27-4.91.3-6.74,1.48a2.63,2.63,0,0,0-.92,3.51c1.16,2.13,3.19,3.23,4.94,4.79,2.2,1.94,4.22,4.14,6.29,6.21s4.14,4.18,6.19,6.28l3.24,3.33,1.53,1.59c.23.24.46.47.68.71s.36.54.32.13L236,74.34c-2,.06-3.94-1-5.75-1.82-2.32-1-4.73-1.86-7.13-2.68q-7.37-2.52-14.91-4.41a217.2,217.2,0,0,0-31.33-5.22,28,28,0,0,0-4-.22c-.38,0-.76.06-1.14.08l-.54,0c-.19,0-.18,0,0,0l-.24-.06c-.11-.1,1.2.89.91,1a8.78,8.78,0,0,0,.17-1.11c.12-.76.21-1.53.28-2.29a29.37,29.37,0,0,0,0-4.4,2.62,2.62,0,0,0-2.56-2.55,2.58,2.58,0,0,0-2.56,2.55Z"/><path class="cls-4" d="M166.78,52.11c0,1.83-.05,3.66-.09,5.5,0,1.58-.33,3.45.09,5a3.38,3.38,0,0,0,3.53,2.5A8.93,8.93,0,0,0,173.58,64a43.69,43.69,0,0,0,7.87-4.41,46.68,46.68,0,0,1,7.5-5.05,2.58,2.58,0,0,0,.91-3.5,2.61,2.61,0,0,0-3.5-.91A35.85,35.85,0,0,0,180,54.31a42.91,42.91,0,0,1-6.8,4.23c-.94.47-1.92.88-2.87,1.34-.23.11-.59.13,0,0-.07,0-.41.2-.48.15.42,0,.5-.05.24,0l.42,0a1.79,1.79,0,0,1,1.26,1.18q0,.47,0,.15a13.93,13.93,0,0,0,0-2.33c0-.73,0-1.46,0-2.2,0-1.58.06-3.17.08-4.76a2.56,2.56,0,1,0-5.12,0Z"/></svg>