<svg id="圖層_1" data-name="圖層 1" xmlns="http://www.w3.org/2000/svg" viewBox="0 0 37.02 45.88"><defs><style>.cls-1{opacity:0.5;}.cls-2{fill:#00a0e9;}</style></defs><title>工作區域 76</title><g class="cls-1"><path class="cls-2" d="M10.29,45.88a1.47,1.47,0,0,1-1.43-1.14c-.06-.28-6-28.52,26.27-38.41A1.46,1.46,0,1,1,36,9.12c-29.69,9.11-24.5,33.93-24.26,35a1.47,1.47,0,0,1-1.11,1.75Z"/><path class="cls-2" d="M1.89,39.62A1.45,1.45,0,0,1,.47,38.48C.4,38.19-5.52,10,26.73.06a1.46,1.46,0,0,1,.86,2.8C-2,11.94,3.09,36.79,3.32,37.84a1.46,1.46,0,0,1-1.11,1.74A1.22,1.22,0,0,1,1.89,39.62Z"/></g></svg>