<svg id="圖層_1" data-name="圖層 1" xmlns="http://www.w3.org/2000/svg" viewBox="0 0 38.94 44.47"><defs><style>.cls-1{opacity:0.5;}.cls-2{fill:#00a0e9;}</style></defs><title>工作區域 79</title><g class="cls-1"><path class="cls-2" d="M1.46,37.59a1.46,1.46,0,0,1-.32-2.89c30.3-6.82,27-32,26.87-33a1.46,1.46,0,0,1,2.89-.42c0,.29,3.79,28.9-29.12,36.3A1.17,1.17,0,0,1,1.46,37.59Z"/><path class="cls-2" d="M9.36,44.47A1.46,1.46,0,0,1,9,41.59c30.3-6.82,27-32,26.86-33a1.47,1.47,0,0,1,2.9-.42c0,.29,3.78,28.9-29.12,36.3Z"/></g></svg>